<svg xmlns="http://www.w3.org/2000/svg" viewBox="0 0 500 500"><g id="freepik--background-simple--inject-383"><path d="M82.36,130.54c27.91-59.45,127.05-51.06,165.31-9.25s50.7,68.59,85.21,53,78.52-11.44,81,38.16S376,320.7,311.83,338.05s-64.16,78.76-149.1,66.37c-46.31-6.76-47.36-56.86-40.82-98.31S50,199.48,82.36,130.54Z" style="fill:#2563EB"></path><path d="M82.36,130.54c27.91-59.45,127.05-51.06,165.31-9.25s50.7,68.59,85.21,53,78.52-11.44,81,38.16S376,320.7,311.83,338.05s-64.16,78.76-149.1,66.37c-46.31-6.76-47.36-56.86-40.82-98.31S50,199.48,82.36,130.54Z" style="fill:#fff;opacity:0.9"></path></g><g id="freepik--Arrow--inject-383"><polygon points="190.49 403.69 236.78 341.07 238.81 338.31 239.15 334.23 251.09 188.8 297.63 185.59 308.27 184.85 312.73 172.16 351.04 62.9 294.1 49.14 279.82 152.77 235.69 160.41 223.68 162.49 222.79 173.84 210.63 328.62 173.21 391.36 166.66 380.63 164.97 422.54 203.59 406.19 190.49 403.69" style="fill:#2563EB"></polygon></g><g id="freepik--Character--inject-383"><path d="M251.22,282.88l9.81,9.94,6.11,6.19s34.75-41,49.52-61.14c2.14-2.92,2.09-7.55,2.22-9.72.26-4.74.7-10.28,1.26-16.22,2.47-26.38,7.21-60.55,8.81-67l-5.67-.93a266.28,266.28,0,0,0-16.23,41.68c-3.66,12.71-6.29,26.48-5.54,38.44a3.28,3.28,0,0,1-.89,2.85c-34.77,26.58-45.13,42.63-48.19,50.33C250.94,281.1,251.22,282.88,251.22,282.88Z" style="fill:#eec1bb"></path><path d="M318.69,135.55l1.55-.38.9,1.82,4.58-3.58,13-3.16s2.58,1.58-3.23,4.75a4.59,4.59,0,0,0-.8.55c-2.93,2.35-6.37,8.74-6.37,8.74L321.21,146a9.38,9.38,0,0,1-.84-.89C319.21,143.76,317.06,140.78,318.69,135.55Z" style="fill:#263238"></path><path d="M320.37,145.14v0c1.2.82,4.37-4.85,7.14-7.19,2.47-2.08,5.48-3.46,7.22-2.38-2.93,2.35-6.49,10.4-6.49,10.4l-5.75,1.39S320.87,145.73,320.37,145.14Z" style="fill:#eec1bb"></path><path d="M252.43,277.29c2.89,5.24,5.83,10.55,8.6,15.53l6.11,6.19s34.75-41,49.52-61.14c2.14-2.92,2.09-7.55,2.22-9.72.26-4.74.7-10.28,1.26-16.22-6.38-8.72-10.59-18.83-13.09-26.26-3.66,12.71-6.29,26.48-5.54,38.44a3.28,3.28,0,0,1-.89,2.85C265.85,253.54,255.49,269.59,252.43,277.29Z" style="opacity:0.2"></path><path d="M286,187.36l.95-1.29,1.86.82,1.22-5.68,8-10.79s3-.44.57,5.71a4.84,4.84,0,0,0-.26.93c-.74,3.69.72,10.8.72,10.8l-4.37,5.92a9.19,9.19,0,0,1-1.21-.14C291.65,193.32,288.09,192.42,286,187.36Z" style="fill:#263238"></path><path d="M293.43,193.64l0,0c1.45-.14.25-6.52.87-10.09.56-3.18,2-6.18,4-6.47-.74,3.69,1.69,12.15,1.69,12.15L296.46,194S294.19,193.77,293.43,193.64Z" style="fill:#eec1bb"></path><path d="M322.63,257.72c-18.29-25.92-27.71-66.83-27.71-66.83l4.95-2.92c3.57,7.32,30.19,49.57,45.65,70.32a32.66,32.66,0,0,1,1.61,3.27,8.67,8.67,0,0,1-.29,7.81l0,.08a8.64,8.64,0,0,1-3.61,3.5c-23.11,11.8-69,31.77-69,31.77L267,283.22S271.09,269.81,322.63,257.72Z" style="fill:#eec1bb"></path><path d="M155,238.73c2.65.14,12.64-16.89,23.93-1.63s-.94,16.73,17.11,20.37-1.53,20.69-2.3,33c-1.38,22.15-33,18.83-28.65,2.77s4.89-19.8-7.92-22.73S136.61,237.71,155,238.73Z" style="fill:#263238"></path><path d="M193,295.41a.25.25,0,0,1-.24-.2c0-.08-1.35-7.28,5.58-13.49,3.36-3,13.87-13.5,7.87-21.88-1.76-2.47-2.43-4.76-2-6.82a6.29,6.29,0,0,1,2.79-3.88.25.25,0,0,1,.34.09.24.24,0,0,1-.09.34,5.94,5.94,0,0,0-2.55,3.56c-.42,1.92.22,4.08,1.9,6.42,6.24,8.72-4.51,19.46-7.95,22.55-6.7,6-5.43,12.94-5.42,13a.24.24,0,0,1-.2.29Z" style="fill:#263238"></path><path d="M191.24,258.09a.23.23,0,0,1-.15,0c-4.38-3.23-7.35-11.37-4.11-22.3,1.06-3.55.32-6.3-2.13-8-3.55-2.42-10-2-12.63,0a.25.25,0,0,1-.35,0,.24.24,0,0,1,0-.35c2.8-2.17,9.45-2.62,13.22,0,1.85,1.26,3.75,3.76,2.33,8.53-3.17,10.7-.31,18.64,3.93,21.76a.24.24,0,0,1,.05.35A.22.22,0,0,1,191.24,258.09Z" style="fill:#263238"></path><path d="M168.9,304.68c-1.26,0-4.18-.24-5.73-2.28-1.27-1.69-1.3-4.18-.08-7.42,3.64-9.69,4.48-16,2.55-19.16a5.39,5.39,0,0,0-4.2-2.49c-7.33-.95-17.06-3.1-17-10.8a.25.25,0,0,1,.25-.25h0a.25.25,0,0,1,.25.25c-.09,7.31,9.39,9.38,16.53,10.3a5.84,5.84,0,0,1,4.56,2.74c2,3.39,1.24,9.61-2.51,19.59-1.16,3.06-1.15,5.39,0,6.93,1.8,2.39,5.85,2.07,5.89,2.07a.25.25,0,0,1,0,.5S169.24,304.68,168.9,304.68Z" style="fill:#263238"></path><path d="M195.74,318.59c-1.11.89-2.09,1.63-3.15,2.38s-2.11,1.46-3.17,2.17c-2.14,1.41-4.35,2.69-6.58,3.95a82,82,0,0,1-14.13,6.25l-.93.31c-.33.1-.51.18-1.18.35a7.44,7.44,0,0,1-3.72,0,7.71,7.71,0,0,1-3-1.59,10.48,10.48,0,0,1-1.87-2,18.14,18.14,0,0,1-2.15-4,35.82,35.82,0,0,1-1.29-3.87,67,67,0,0,1-2-15.24l4.25-.46c.53,2.3,1.13,4.68,1.79,7a62.29,62.29,0,0,0,2.24,6.68,19.86,19.86,0,0,0,3,5.4c.52.62,1,.79.94.69s-.13,0-.07-.08l1.38-.56a96.6,96.6,0,0,0,12.6-6.27c2-1.19,4-2.48,6-3.78s4-2.71,5.72-4Z" style="fill:#ebc0bb"></path><path d="M198.5,315.78c.2,3.59-12.74,10.2-12.74,10.2l-9.1-7.2s11-13.1,15.5-11.69C196.79,308.56,198.22,310.55,198.5,315.78Z" style="fill:#2563EB"></path><path d="M176.66,318.77l9.1,7.21a73.28,73.28,0,0,0,8.27-5c2.49-1.8,4.55-3.74,4.47-5.19a17.77,17.77,0,0,0-.41-3.16c-.71-3-2.38-4.41-5.94-5.54C187.7,305.67,176.66,318.77,176.66,318.77Z" style="fill:#fff;opacity:0.5"></path><path d="M190.29,316.06A9.7,9.7,0,0,0,194,321c2.49-1.8,4.55-3.74,4.47-5.19a17.77,17.77,0,0,0-.41-3.16A34.28,34.28,0,0,0,190.29,316.06Z" style="opacity:0.2"></path><path d="M157.12,309.78l2.47-10-7.86,3.47s-.48,5.4,2.46,7.32Z" style="fill:#eec1bb"></path><polygon points="157.98 293.69 152.17 296.44 151.73 303.23 159.59 299.76 157.98 293.69" style="fill:#eec1bb"></polygon><path d="M249.93,274.11s-14.56,12.29-40.86,6.75c0,0-13.83,17.6-21.84,35.41,0,0,26.24,12,69.38-8.07Z" style="fill:#2563EB"></path><path d="M187.22,316.26s26.24,12,69.39-8.06l-6.68-34.09s-6.55,5.52-18.79,7.49a60.21,60.21,0,0,1-22.07-.74s-.63.8-1.7,2.23C203.44,288.37,193.53,302.26,187.22,316.26Z" style="fill:#fff;opacity:0.5"></path><path d="M197.18,311a6.08,6.08,0,0,0,1.81,1.69c2.3,1.44,5.59,1.67,8.39,1.51a32.62,32.62,0,0,0,5.51-.77,20.22,20.22,0,0,0,4.69,1.56h0c1.75.32,3.63.33,4.94-.6,3-2.1.54-4.67-5-3.64l-1,.22a16,16,0,0,0,3.86-2.33,10.56,10.56,0,0,0,3-3.74l-2.24-2.29a10.39,10.39,0,0,1-2.94,5.76,13.67,13.67,0,0,1-2.2,1.89s-.07-8.71,2.63-12.61l-2.7.65a30,30,0,0,0-1.25,7.89c-.28-3.08-.51-7.07-1.65-7.15a2.1,2.1,0,0,0-.44,0c-2.24.37-1.43,5.17-.68,9.22-1.17-4.38-3.4-12.75-7.12-14.13C198.13,291.67,195.19,308.08,197.18,311Zm15.41-9.72c.45,0,.69,1.23.81,2.75.19,2.45.08,5.64.08,5.64s-.44-1.76-.8-3.67C212.26,303.7,211.94,301.23,212.59,301.24Zm3.06,11.46s6.35-1,6.27,0S218.92,314.58,215.65,312.7Z" style="fill:#2563EB"></path><path d="M214.08,311.9a10.2,10.2,0,0,1,2.66-.94,5.39,5.39,0,0,0,.78-.25l-1.1.24a15.61,15.61,0,0,0,3.92-2.35l-2.2-.27a13.67,13.67,0,0,1-2.2,1.89,1,1,0,0,1-.68.84s.54-3.31-.64-4.91C214.62,306.15,214.71,310.17,214.08,311.9Z" style="opacity:0.1"></path><path d="M211.85,308.24l.83-2.28c-.42-2.26-.74-4.73-.09-4.72.45,0,.69,1.23.81,2.75l.68-1.87a22.41,22.41,0,0,0-1.55-3.1C210.29,299.39,211.1,304.19,211.85,308.24Z" style="opacity:0.1"></path><path d="M197.18,311a6.08,6.08,0,0,0,1.81,1.69l1.29-1.23a33.47,33.47,0,0,1,7.1,2.74,32.62,32.62,0,0,0,5.51-.77,20.22,20.22,0,0,0,4.69,1.56c-4.39-1.27-4.07-3.05-4.07-3.05-1.15-.85-1.66-3.66-1.66-3.66-1.17-4.38-3.4-12.75-7.12-14.13C198.13,291.67,195.19,308.08,197.18,311Z" style="opacity:0.1"></path><path d="M212.54,302.12s-1.28-9.59-14.34-14.24l-5.28,17.25-.55,11.71,7.41-5.88,12.76,1.74-3.47-8.5Z" style="fill:#2563EB"></path><path d="M212.54,302.12s-1.28-9.59-14.34-14.24l-5.28,17.25-.55,11.71,7.41-5.88,12.76,1.74-3.47-8.5Z" style="fill:#fff;opacity:0.6000000000000001"></path><path d="M184.72,300.06c5.1,0,14.3-.8,16.91-4.88,0,0,5.26.36,7.05,9.5,2,10.05-4.05,5.78-4.05,5.78-2.39-5.23-6.43-4.29-10.06-2.58Z" style="fill:#eec1bb"></path><path d="M188.74,303.25l5.82,4.62a16.77,16.77,0,0,1,2.62-1c-.71-2-3.57-4.46-5.81-4.26A7.52,7.52,0,0,0,188.74,303.25Z" style="opacity:0.2"></path><path d="M187.49,290.29c5.78,6.08,8.36,8.52,8.63,14.54.4,9.06-8.32,14.83-15.8,10.6-6.73-3.8-15-13.09-11.91-21.35A11.43,11.43,0,0,1,187.49,290.29Z" style="fill:#eec1bb"></path><path d="M166.33,299.93c1.7,4.39,28.23-10.19,19.31-13S161.91,288.46,166.33,299.93Z" style="fill:#263238"></path><path d="M181.46,293.57c3,2.72,9.78.9,9.78.9s-.46-8.34-5-6.25S181.46,293.57,181.46,293.57Z" style="fill:#263238"></path><path d="M179.74,302c.5.46.66,1.1.35,1.43s-1,.21-1.45-.25-.66-1.11-.35-1.43S179.24,301.57,179.74,302Z" style="fill:#263238"></path><path d="M173.52,308.24l-1.46.88S173.57,309.37,173.52,308.24Z" style="fill:#263238"></path><path d="M177.31,306.32a18.16,18.16,0,0,1,1.53,4.74,2.94,2.94,0,0,0,2-1.47Z" style="fill:#d4827d"></path><path d="M194.65,293.85a6.15,6.15,0,0,1,.34,4.67c-.7,2-2.81,1.84-4.09.26-1.16-1.42-2.19-4.19-.79-5.74A2.76,2.76,0,0,1,194.65,293.85Z" style="fill:#eec1bb"></path><path d="M176.14,299.85a.4.4,0,0,1,.39-.26c1.85.08,3.32-1.8,3.33-1.82a.4.4,0,0,1,.64.49c-.07.09-1.74,2.23-4,2.13a.41.41,0,0,1-.39-.41Z" style="fill:#263238"></path><path d="M171.39,303.61a.4.4,0,0,1,.66.4,4,4,0,0,1-2.43,2.73.4.4,0,0,1-.5-.26.41.41,0,0,1,.26-.51h0a3.12,3.12,0,0,0,1.9-2.18A.42.42,0,0,1,171.39,303.61Z" style="fill:#263238"></path><path d="M178.45,301.67l-1.46.88S178.5,302.8,178.45,301.67Z" style="fill:#263238"></path><path d="M186.63,311a5.47,5.47,0,0,1-.4.46l-3.87-.64s.06-.23.18-.57c.38-1.17,1.39-3.72,2.94-4a3,3,0,0,1,2.31.63C188.47,307.48,188.54,308.74,186.63,311Z" style="fill:#263238"></path><path d="M186,306.16l-3,4.06h-.48c.38-1.17,1.39-3.72,2.94-4A2.75,2.75,0,0,1,186,306.16Z" style="fill:#fff"></path><path d="M186.63,311c-1.08-1.19.23-3.11,1.16-4.14C188.47,307.48,188.54,308.74,186.63,311Z" style="fill:#de5753"></path><path d="M173,308.55s-.43-.82,0-1.35,1.85,0,1.85,0-1.88.1-1.34,1l-.37.45Z" style="fill:#263238"></path><path d="M217.85,235.15l-8.65-2.89,7.33-4.48s4.71,2.7,4.61,6.21Z" style="fill:#eec1bb"></path><polygon points="205.28 226.33 211.62 222.92 216.53 227.78 209.2 232.26 205.28 226.33" style="fill:#eec1bb"></polygon><path d="M207.37,283.09a10.64,10.64,0,0,0,7.8,5.47c8.42,1.41,13.41-3.39,16-7a60.21,60.21,0,0,1-22.07-.74S208.44,281.66,207.37,283.09Z" style="opacity:0.2"></path><path d="M210.49,282.52c.58-.79,1.24-1.76,1.86-2.67s1.23-1.86,1.81-2.81c1.16-1.91,2.31-3.82,3.3-5.8a45,45,0,0,0,4.39-12c.08-.47.18-1.09.19-1.28a9.07,9.07,0,0,0,0-1.27c-.06-1-.21-2-.39-3.11-.39-2.16-.88-4.4-1.45-6.63s-1.12-4.49-1.75-6.74l-1.86-6.75,4-1.6A128,128,0,0,1,226.47,245c.84,2.27,1.65,4.57,2.31,7a37.37,37.37,0,0,1,.83,3.86,18.73,18.73,0,0,1,.19,2.26c0,1-.09,1.53-.15,2.23A38.23,38.23,0,0,1,228,268a53.73,53.73,0,0,1-2.83,7c-1.09,2.26-2.26,4.45-3.55,6.57-.66,1-1.33,2.09-2,3.12s-1.4,2-2.25,3.1Z" style="fill:#ebc0bb"></path><path d="M218.29,292.42c3.48-.88,8.17-12.51,8.17-12.51L213.6,269.75a70.34,70.34,0,0,1-6.82,14.15C204.22,288,214.32,293.42,218.29,292.42Z" style="fill:#2563EB"></path><path d="M218.29,292.42c3.48-.88,8.17-12.51,8.17-12.51L213.6,269.75a70.34,70.34,0,0,1-6.82,14.15C204.22,288,214.32,293.42,218.29,292.42Z" style="fill:#fff;opacity:0.5"></path><path d="M244.26,277.54,253,309.8l3.59-1.6c27.09,1.1,51.5-16.81,51.5-16.81-.05-1.39-.15-2.78-.28-4.15a57.91,57.91,0,0,1-11.14,2.32c4.87-5.43,7.2-13,8.16-17.06-10.16-33.35-40.26-57.18-40.26-57.18,0,27.16-16.43,58.79-16.43,58.79Z" style="fill:#263238"></path></g></svg>
