<svg xmlns="http://www.w3.org/2000/svg" viewBox="0 0 500 500"><g id="freepik--background-simple--inject-415"><g><path d="M104.26,251.882l70.259-104.612c26.669-39.709,81.213-48.879,119.401-20.072l83.224,62.779c61.033,46.04,33.07,143.095-43.102,149.605l-53.123,4.54c-10.676,.912-21.076,3.874-30.631,8.724l-39.099,19.845c-76.599,38.878-154.822-49.499-106.929-120.809Z" style="fill:#2563EB;"></path><path d="M104.26,251.882l70.259-104.612c26.669-39.709,81.213-48.879,119.401-20.072l83.224,62.779c61.033,46.04,33.07,143.095-43.102,149.605l-53.123,4.54c-10.676,.912-21.076,3.874-30.631,8.724l-39.099,19.845c-76.599,38.878-154.822-49.499-106.929-120.809Z" style="fill:#fff; opacity:.9;"></path></g></g><g id="freepik--Shadow--inject-415"><ellipse id="freepik--_Path_--inject-415" cx="245.178" cy="412.391" rx="193.889" ry="11.323" style="fill:#f5f5f5;"></ellipse></g><g id="freepik--Building_1--inject-415"><g><g><rect x="62.407" y="250.458" width="63.351" height="3.458" transform="translate(188.166 504.373) rotate(180)" style="fill:#2563EB;"></rect><rect x="62.407" y="250.458" width="63.351" height="3.458" transform="translate(188.166 504.373) rotate(180)" style="fill:#fff; opacity:.2;"></rect><rect x="60.256" y="247" width="67.654" height="3.458" transform="translate(188.166 497.458) rotate(180)" style="fill:#2563EB;"></rect><rect x="60.256" y="247" width="67.654" height="3.458" transform="translate(188.166 497.458) rotate(180)" style="fill:#fff; opacity:.4;"></rect><rect x="64.897" y="253.915" width="58.371" height="154.812" transform="translate(188.166 662.642) rotate(180)" style="fill:#2563EB;"></rect><rect x="64.897" y="253.915" width="58.371" height="154.812" transform="translate(188.166 662.642) rotate(180)" style="fill:#fff; opacity:.5;"></rect><rect x="104.787" y="253.915" width="18.481" height="154.812" transform="translate(228.056 662.642) rotate(180)" style="opacity:.2;"></rect><rect x="104.701" y="250.458" width="21.057" height="3.458" transform="translate(230.46 504.373) rotate(180)" style="opacity:.2;"></rect><rect x="104.701" y="247" width="23.208" height="3.458" transform="translate(232.611 497.458) rotate(180)" style="opacity:.2;"></rect></g><g><rect x="93.143" y="258.437" width="7.827" height="17.446" transform="translate(194.113 534.32) rotate(180)" style="fill:#2563EB;"></rect><rect x="80.929" y="258.437" width="7.826" height="17.446" transform="translate(169.684 534.32) rotate(180)" style="fill:#2563EB;"></rect><rect x="68.715" y="258.437" width="7.827" height="17.446" transform="translate(145.256 534.32) rotate(180)" style="fill:#2563EB;"></rect><rect x="93.143" y="279.462" width="7.827" height="17.446" transform="translate(194.113 576.37) rotate(180)" style="fill:#2563EB;"></rect><rect x="80.929" y="279.462" width="7.826" height="17.446" transform="translate(169.684 576.37) rotate(180)" style="fill:#2563EB;"></rect><rect x="68.715" y="279.462" width="7.827" height="17.446" transform="translate(145.256 576.37) rotate(180)" style="fill:#2563EB;"></rect><rect x="93.143" y="310.621" width="7.827" height="17.446" transform="translate(194.113 638.689) rotate(180)" style="fill:#2563EB;"></rect><rect x="80.929" y="310.621" width="7.826" height="17.446" transform="translate(169.684 638.689) rotate(180)" style="fill:#2563EB;"></rect><rect x="68.715" y="310.621" width="7.827" height="17.446" transform="translate(145.256 638.689) rotate(180)" style="fill:#2563EB;"></rect><rect x="93.143" y="331.646" width="7.827" height="17.446" transform="translate(194.113 680.739) rotate(180)" style="fill:#2563EB;"></rect><rect x="80.929" y="331.646" width="7.826" height="17.446" transform="translate(169.684 680.739) rotate(180)" style="fill:#2563EB;"></rect><rect x="68.715" y="331.646" width="7.827" height="17.446" transform="translate(145.256 680.739) rotate(180)" style="fill:#2563EB;"></rect><rect x="93.143" y="362.806" width="7.827" height="17.447" transform="translate(194.113 743.059) rotate(180)" style="fill:#2563EB;"></rect><rect x="80.929" y="362.806" width="7.826" height="17.447" transform="translate(169.684 743.059) rotate(180)" style="fill:#2563EB;"></rect><rect x="68.715" y="362.806" width="7.827" height="17.447" transform="translate(145.256 743.059) rotate(180)" style="fill:#2563EB;"></rect><rect x="84.842" y="388.788" width="9.785" height="21.812" transform="translate(179.469 799.388) rotate(180)" style="fill:#2563EB;"></rect><rect x="75.057" y="388.788" width="9.785" height="21.812" transform="translate(159.899 799.388) rotate(180)" style="fill:#2563EB;"></rect></g><g style="opacity:.2;"><rect x="93.143" y="258.437" width="7.827" height="17.446" transform="translate(194.113 534.32) rotate(180)" style="fill:#fff;"></rect><rect x="80.929" y="258.437" width="7.826" height="17.446" transform="translate(169.684 534.32) rotate(180)" style="fill:#fff;"></rect><rect x="68.715" y="258.437" width="7.827" height="17.446" transform="translate(145.256 534.32) rotate(180)" style="fill:#fff;"></rect><rect x="93.143" y="279.462" width="7.827" height="17.446" transform="translate(194.113 576.37) rotate(180)" style="fill:#fff;"></rect><rect x="80.929" y="279.462" width="7.826" height="17.446" transform="translate(169.684 576.37) rotate(180)" style="fill:#fff;"></rect><rect x="68.715" y="279.462" width="7.827" height="17.446" transform="translate(145.256 576.37) rotate(180)" style="fill:#fff;"></rect><rect x="93.143" y="310.621" width="7.827" height="17.446" transform="translate(194.113 638.689) rotate(180)" style="fill:#fff;"></rect><rect x="80.929" y="310.621" width="7.826" height="17.446" transform="translate(169.684 638.689) rotate(180)" style="fill:#fff;"></rect><rect x="68.715" y="310.621" width="7.827" height="17.446" transform="translate(145.256 638.689) rotate(180)" style="fill:#fff;"></rect><rect x="93.143" y="331.646" width="7.827" height="17.446" transform="translate(194.113 680.739) rotate(180)" style="fill:#fff;"></rect><rect x="80.929" y="331.646" width="7.826" height="17.446" transform="translate(169.684 680.739) rotate(180)" style="fill:#fff;"></rect><rect x="68.715" y="331.646" width="7.827" height="17.446" transform="translate(145.256 680.739) rotate(180)" style="fill:#fff;"></rect><rect x="93.143" y="362.806" width="7.827" height="17.447" transform="translate(194.113 743.059) rotate(180)" style="fill:#fff;"></rect><rect x="80.929" y="362.806" width="7.826" height="17.447" transform="translate(169.684 743.059) rotate(180)" style="fill:#fff;"></rect><rect x="68.715" y="362.806" width="7.827" height="17.447" transform="translate(145.256 743.059) rotate(180)" style="fill:#fff;"></rect><rect x="84.842" y="388.788" width="9.785" height="21.812" transform="translate(179.469 799.388) rotate(180)" style="fill:#fff;"></rect><rect x="75.057" y="388.788" width="9.785" height="21.812" transform="translate(159.899 799.388) rotate(180)" style="fill:#fff;"></rect></g><g style="opacity:.8;"><rect x="94.57" y="259.864" width="4.972" height="14.592" transform="translate(194.113 534.32) rotate(180)" style="fill:#fff;"></rect><rect x="82.356" y="259.864" width="4.972" height="14.592" transform="translate(169.684 534.32) rotate(180)" style="fill:#fff;"></rect><rect x="70.142" y="259.864" width="4.972" height="14.592" transform="translate(145.256 534.32) rotate(180)" style="fill:#fff;"></rect><rect x="94.57" y="280.889" width="4.972" height="14.592" transform="translate(194.113 576.369) rotate(180)" style="fill:#fff;"></rect><rect x="82.356" y="280.889" width="4.972" height="14.592" transform="translate(169.684 576.369) rotate(180)" style="fill:#fff;"></rect><rect x="70.142" y="280.889" width="4.972" height="14.592" transform="translate(145.256 576.369) rotate(180)" style="fill:#fff;"></rect><rect x="94.57" y="312.049" width="4.972" height="14.592" transform="translate(194.113 638.689) rotate(180)" style="fill:#fff;"></rect><rect x="82.356" y="312.049" width="4.972" height="14.592" transform="translate(169.684 638.689) rotate(180)" style="fill:#fff;"></rect><rect x="70.142" y="312.049" width="4.972" height="14.592" transform="translate(145.256 638.689) rotate(180)" style="fill:#fff;"></rect><rect x="94.57" y="333.073" width="4.972" height="14.592" transform="translate(194.113 680.739) rotate(180)" style="fill:#fff;"></rect><rect x="82.356" y="333.073" width="4.972" height="14.592" transform="translate(169.684 680.739) rotate(180)" style="fill:#fff;"></rect><rect x="70.142" y="333.073" width="4.972" height="14.592" transform="translate(145.256 680.739) rotate(180)" style="fill:#fff;"></rect><rect x="94.57" y="364.233" width="4.972" height="14.592" transform="translate(194.113 743.059) rotate(180)" style="fill:#fff;"></rect><rect x="82.356" y="364.233" width="4.972" height="14.592" transform="translate(169.684 743.059) rotate(180)" style="fill:#fff;"></rect><rect x="70.142" y="364.233" width="4.972" height="14.592" transform="translate(145.256 743.059) rotate(180)" style="fill:#fff;"></rect><rect x="86.626" y="390.572" width="6.217" height="18.244" transform="translate(179.469 799.388) rotate(180)" style="fill:#fff;"></rect><rect x="76.841" y="390.572" width="6.217" height="18.244" transform="translate(159.899 799.388) rotate(180)" style="fill:#fff;"></rect></g><g><rect x="91.943" y="275.883" width="10.227" height="1.199" transform="translate(194.113 552.965) rotate(180)" style="fill:#2563EB;"></rect><rect x="79.729" y="275.883" width="10.227" height="1.199" transform="translate(169.684 552.965) rotate(180)" style="fill:#2563EB;"></rect><rect x="67.514" y="275.883" width="10.227" height="1.199" transform="translate(145.256 552.965) rotate(180)" style="fill:#2563EB;"></rect><rect x="91.943" y="296.908" width="10.227" height="1.199" transform="translate(194.113 595.015) rotate(180)" style="fill:#2563EB;"></rect><rect x="79.729" y="296.908" width="10.227" height="1.199" transform="translate(169.684 595.015) rotate(180)" style="fill:#2563EB;"></rect><rect x="67.514" y="296.908" width="10.227" height="1.199" transform="translate(145.256 595.015) rotate(180)" style="fill:#2563EB;"></rect><rect x="91.943" y="328.068" width="10.227" height="1.199" transform="translate(194.113 657.335) rotate(180)" style="fill:#2563EB;"></rect><rect x="79.729" y="328.068" width="10.227" height="1.199" transform="translate(169.684 657.335) rotate(180)" style="fill:#2563EB;"></rect><rect x="67.514" y="328.068" width="10.227" height="1.199" transform="translate(145.256 657.335) rotate(180)" style="fill:#2563EB;"></rect><rect x="91.943" y="349.093" width="10.227" height="1.199" transform="translate(194.113 699.385) rotate(180)" style="fill:#2563EB;"></rect><rect x="79.729" y="349.093" width="10.227" height="1.199" transform="translate(169.684 699.385) rotate(180)" style="fill:#2563EB;"></rect><rect x="67.514" y="349.093" width="10.227" height="1.199" transform="translate(145.256 699.385) rotate(180)" style="fill:#2563EB;"></rect><rect x="91.943" y="380.253" width="10.227" height="1.199" transform="translate(194.113 761.705) rotate(180)" style="fill:#2563EB;"></rect><rect x="79.729" y="380.253" width="10.227" height="1.199" transform="translate(169.684 761.705) rotate(180)" style="fill:#2563EB;"></rect><rect x="67.514" y="380.253" width="10.227" height="1.199" transform="translate(145.256 761.705) rotate(180)" style="fill:#2563EB;"></rect><rect x="72.628" y="387.589" width="23.795" height="1.199" transform="translate(169.051 776.377) rotate(180)" style="fill:#2563EB;"></rect></g><rect x="119.176" y="282.596" width="4.092" height="2.283" transform="translate(242.444 567.476) rotate(180)" style="opacity:.3;"></rect><rect x="115.23" y="287.043" width="4.092" height="2.283" transform="translate(234.552 576.369) rotate(180)" style="opacity:.3;"></rect><rect x="113.184" y="282.596" width="4.092" height="2.283" transform="translate(230.46 567.476) rotate(180)" style="opacity:.3;"></rect><rect x="114.134" y="265.471" width="4.092" height="2.283" transform="translate(232.36 533.226) rotate(180)" style="opacity:.3;"></rect><rect x="110.187" y="269.918" width="4.092" height="2.283" transform="translate(224.467 542.119) rotate(180)" style="opacity:.3;"></rect><rect x="110.187" y="260.775" width="4.092" height="2.283" transform="translate(224.467 523.833) rotate(180)" style="opacity:.3;"></rect><rect x="108.141" y="265.471" width="4.092" height="2.283" transform="translate(220.375 533.226) rotate(180)" style="opacity:.3;"></rect><rect x="108.721" y="386.091" width="4.092" height="2.283" transform="translate(221.533 774.465) rotate(180)" style="opacity:.3;"></rect><rect x="104.774" y="381.394" width="4.092" height="2.283" transform="translate(213.641 765.072) rotate(180)" style="opacity:.3;"></rect><g><rect x="119.176" y="315.323" width="4.092" height="2.283" transform="translate(242.444 632.929) rotate(180)" style="opacity:.3;"></rect><rect x="115.23" y="319.769" width="4.092" height="2.283" transform="translate(234.552 641.822) rotate(180)" style="opacity:.3;"></rect><rect x="115.23" y="310.626" width="4.092" height="2.283" transform="translate(234.552 623.535) rotate(180)" style="opacity:.3;"></rect><rect x="113.184" y="315.323" width="4.092" height="2.283" transform="translate(230.46 632.929) rotate(180)" style="opacity:.3;"></rect><rect x="110.694" y="344.514" width="4.092" height="2.283" transform="translate(225.48 691.312) rotate(180)" style="opacity:.3;"></rect><rect x="106.747" y="348.961" width="4.092" height="2.283" transform="translate(217.587 700.205) rotate(180)" style="opacity:.3;"></rect><rect x="106.747" y="339.818" width="4.092" height="2.283" transform="translate(217.587 681.919) rotate(180)" style="opacity:.3;"></rect><rect x="119.103" y="334.28" width="4.092" height="2.283" transform="translate(242.299 670.843) rotate(180)" style="opacity:.3;"></rect><rect x="115.157" y="329.584" width="4.092" height="2.283" transform="translate(234.406 661.45) rotate(180)" style="opacity:.3;"></rect><rect x="104.701" y="344.514" width="4.092" height="2.283" transform="translate(213.495 691.312) rotate(180)" style="opacity:.3;"></rect></g><rect x="119.103" y="367.503" width="4.092" height="2.283" transform="translate(242.299 737.289) rotate(180)" style="opacity:.3;"></rect><rect x="115.157" y="371.95" width="4.092" height="2.283" transform="translate(234.406 746.182) rotate(180)" style="opacity:.3;"></rect><rect x="115.157" y="362.806" width="4.092" height="2.283" transform="translate(234.406 727.896) rotate(180)" style="opacity:.3;"></rect><rect x="119.103" y="398.678" width="4.092" height="2.283" transform="translate(242.299 799.638) rotate(180)" style="opacity:.3;"></rect><rect x="115.157" y="403.124" width="4.092" height="2.283" transform="translate(234.406 808.532) rotate(180)" style="opacity:.3;"></rect><rect x="115.157" y="393.981" width="4.092" height="2.283" transform="translate(234.406 790.245) rotate(180)" style="opacity:.3;"></rect><rect x="113.111" y="367.503" width="4.092" height="2.283" transform="translate(230.314 737.289) rotate(180)" style="opacity:.3;"></rect><g><rect x="62.407" y="302.638" width="63.351" height="3.458" transform="translate(188.166 608.733) rotate(180)" style="fill:#2563EB;"></rect><rect x="62.407" y="302.638" width="63.351" height="3.458" transform="translate(188.166 608.733) rotate(180)" style="fill:#fff; opacity:.2;"></rect><rect x="104.701" y="302.638" width="21.057" height="3.458" transform="translate(230.46 608.733) rotate(180)" style="opacity:.2;"></rect></g><g><rect x="62.407" y="354.818" width="63.351" height="3.458" transform="translate(188.166 713.094) rotate(180)" style="fill:#2563EB;"></rect><rect x="62.407" y="354.818" width="63.351" height="3.458" transform="translate(188.166 713.094) rotate(180)" style="fill:#fff; opacity:.2;"></rect><rect x="104.701" y="354.818" width="21.057" height="3.458" transform="translate(230.46 713.094) rotate(180)" style="opacity:.2;"></rect></g><g><rect x="62.407" y="407.571" width="63.351" height="3.458" transform="translate(188.166 818.599) rotate(180)" style="fill:#2563EB;"></rect><rect x="62.407" y="407.571" width="63.351" height="3.458" transform="translate(188.166 818.599) rotate(180)" style="fill:#fff; opacity:.2;"></rect><rect x="104.701" y="407.571" width="21.057" height="3.458" transform="translate(230.46 818.599) rotate(180)" style="opacity:.2;"></rect></g></g></g><g id="freepik--Building_8--inject-415"><g><g><g><rect x="380.484" y="376.212" width="46.239" height="34.816" style="fill:#2563EB;"></rect><rect x="380.484" y="306.705" width="46.239" height="34.816" style="fill:#2563EB;"></rect><rect x="380.484" y="237.198" width="46.239" height="34.816" style="fill:#2563EB;"></rect></g><g style="opacity:.7;"><rect x="380.484" y="376.212" width="46.239" height="34.816" style="fill:#fff;"></rect><rect x="380.484" y="306.705" width="46.239" height="34.816" style="fill:#fff;"></rect><rect x="380.484" y="237.198" width="46.239" height="34.816" style="fill:#fff;"></rect></g></g><g><g><g><rect x="380.484" y="341.458" width="46.239" height="34.816" style="fill:#2563EB;"></rect><rect x="380.484" y="271.951" width="46.239" height="34.817" style="fill:#2563EB;"></rect></g><g style="opacity:.2;"><rect x="380.484" y="341.458" width="46.239" height="34.816" style="fill:#fff;"></rect><rect x="380.484" y="271.951" width="46.239" height="34.817" style="fill:#fff;"></rect></g></g><rect x="380.484" y="376.212" width="15.84" height="34.816" style="opacity:.1;"></rect><rect x="380.484" y="341.458" width="15.84" height="34.816" style="opacity:.1;"></rect><rect x="380.484" y="306.705" width="15.84" height="34.816" style="opacity:.1;"></rect><rect x="380.484" y="271.951" width="15.84" height="34.817" style="opacity:.1;"></rect><rect x="380.484" y="237.198" width="15.84" height="34.816" style="opacity:.1;"></rect><g><rect x="401.209" y="242.856" width="10.756" height="24.174" style="fill:#2563EB;"></rect><rect x="401.209" y="242.856" width="10.756" height="24.174" style="opacity:.2;"></rect><rect x="411.965" y="242.856" width="10.756" height="24.174" style="fill:#2563EB;"></rect><rect x="399.85" y="241.414" width="24.58" height="1.442" style="fill:#2563EB;"></rect><rect x="399.85" y="241.414" width="24.58" height="1.442" style="fill:#fff; opacity:.2;"></rect><polygon points="411.089 247.38 401.727 259.371 401.727 258.545 411.089 246.554 411.089 247.38" style="fill:#fff; opacity:.4;"></polygon><polygon points="411.089 250.681 401.727 262.672 401.727 261.227 411.089 249.236 411.089 250.681" style="fill:#fff; opacity:.4;"></polygon><polygon points="411.089 253.363 401.727 265.354 401.727 263.504 411.089 251.513 411.089 253.363" style="fill:#fff; opacity:.4;"></polygon><polygon points="422.024 245.105 412.661 257.096 412.661 256.27 422.024 244.279 422.024 245.105" style="fill:#fff; opacity:.4;"></polygon><polygon points="422.024 254.383 412.661 266.374 412.661 265.548 422.024 253.557 422.024 254.383" style="fill:#fff; opacity:.4;"></polygon><polygon points="412.661 258.953 422.024 246.962 422.024 251.089 412.661 263.079 412.661 258.953" style="fill:#fff; opacity:.4;"></polygon><rect x="399.85" y="241.414" width="3.753" height="1.442" style="opacity:.2;"></rect><rect x="399.85" y="267.029" width="24.58" height="1.442" style="fill:#2563EB;"></rect><rect x="399.85" y="267.029" width="24.58" height="1.442" style="fill:#fff; opacity:.2;"></rect><rect x="399.85" y="267.029" width="3.753" height="1.442" style="opacity:.2;"></rect></g><g><rect x="401.209" y="277.687" width="10.756" height="24.174" style="fill:#2563EB;"></rect><rect x="401.209" y="277.687" width="10.756" height="24.174" style="opacity:.2;"></rect><rect x="411.965" y="277.687" width="10.756" height="24.174" style="fill:#2563EB;"></rect><rect x="399.85" y="276.245" width="24.58" height="1.442" style="fill:#2563EB;"></rect><rect x="399.85" y="276.245" width="24.58" height="1.442" style="fill:#fff; opacity:.2;"></rect><polygon points="411.089 282.211 401.727 294.202 401.727 293.376 411.089 281.386 411.089 282.211" style="fill:#fff; opacity:.4;"></polygon><polygon points="411.089 285.513 401.727 297.503 401.727 296.059 411.089 284.068 411.089 285.513" style="fill:#fff; opacity:.4;"></polygon><polygon points="411.089 288.195 401.727 300.186 401.727 298.335 411.089 286.344 411.089 288.195" style="fill:#fff; opacity:.4;"></polygon><polygon points="422.024 279.937 412.661 291.928 412.661 291.102 422.024 279.111 422.024 279.937" style="fill:#fff; opacity:.4;"></polygon><polygon points="422.024 289.215 412.661 301.206 412.661 300.38 422.024 288.389 422.024 289.215" style="fill:#fff; opacity:.4;"></polygon><polygon points="412.661 293.784 422.024 281.794 422.024 285.92 412.661 297.911 412.661 293.784" style="fill:#fff; opacity:.4;"></polygon><rect x="399.85" y="276.245" width="3.753" height="1.442" style="opacity:.2;"></rect><rect x="399.85" y="301.861" width="24.58" height="1.442" style="fill:#2563EB;"></rect><rect x="399.85" y="301.861" width="24.58" height="1.442" style="fill:#fff; opacity:.2;"></rect><rect x="399.85" y="301.861" width="3.753" height="1.442" style="opacity:.2;"></rect></g><g><rect x="401.209" y="312.519" width="10.756" height="24.174" style="fill:#2563EB;"></rect><rect x="401.209" y="312.519" width="10.756" height="24.174" style="opacity:.2;"></rect><rect x="411.965" y="312.519" width="10.756" height="24.174" style="fill:#2563EB;"></rect><rect x="399.85" y="311.077" width="24.58" height="1.442" style="fill:#2563EB;"></rect><rect x="399.85" y="311.077" width="24.58" height="1.442" style="fill:#fff; opacity:.2;"></rect><polygon points="411.089 317.043 401.727 329.034 401.727 328.208 411.089 316.217 411.089 317.043" style="fill:#fff; opacity:.4;"></polygon><polygon points="411.089 320.344 401.727 332.335 401.727 330.89 411.089 318.9 411.089 320.344" style="fill:#fff; opacity:.4;"></polygon><polygon points="411.089 323.026 401.727 335.017 401.727 333.167 411.089 321.176 411.089 323.026" style="fill:#fff; opacity:.4;"></polygon><polygon points="422.024 314.769 412.661 326.759 412.661 325.934 422.024 313.943 422.024 314.769" style="fill:#fff; opacity:.4;"></polygon><polygon points="422.024 324.046 412.661 336.037 412.661 335.211 422.024 323.22 422.024 324.046" style="fill:#fff; opacity:.4;"></polygon><polygon points="412.661 328.616 422.024 316.625 422.024 320.752 412.661 332.743 412.661 328.616" style="fill:#fff; opacity:.4;"></polygon><rect x="399.85" y="311.077" width="3.753" height="1.442" style="opacity:.2;"></rect><rect x="399.85" y="336.693" width="24.58" height="1.442" style="fill:#2563EB;"></rect><rect x="399.85" y="336.693" width="24.58" height="1.442" style="fill:#fff; opacity:.2;"></rect><rect x="399.85" y="336.693" width="3.753" height="1.442" style="opacity:.2;"></rect></g><g><rect x="401.209" y="347.351" width="10.756" height="24.174" style="fill:#2563EB;"></rect><rect x="401.209" y="347.351" width="10.756" height="24.174" style="opacity:.2;"></rect><rect x="411.965" y="347.351" width="10.756" height="24.174" style="fill:#2563EB;"></rect><rect x="399.85" y="345.909" width="24.58" height="1.442" style="fill:#2563EB;"></rect><rect x="399.85" y="345.909" width="24.58" height="1.442" style="fill:#fff; opacity:.2;"></rect><polygon points="411.089 351.875 401.727 363.866 401.727 363.04 411.089 351.049 411.089 351.875" style="fill:#fff; opacity:.4;"></polygon><polygon points="411.089 355.176 401.727 367.166 401.727 365.722 411.089 353.731 411.089 355.176" style="fill:#fff; opacity:.4;"></polygon><polygon points="411.089 357.858 401.727 369.849 401.727 367.998 411.089 356.008 411.089 357.858" style="fill:#fff; opacity:.4;"></polygon><polygon points="422.024 349.6 412.661 361.591 412.661 360.765 422.024 348.774 422.024 349.6" style="fill:#fff; opacity:.4;"></polygon><polygon points="422.024 358.878 412.661 370.869 412.661 370.043 422.024 358.052 422.024 358.878" style="fill:#fff; opacity:.4;"></polygon><polygon points="412.661 363.448 422.024 351.457 422.024 355.584 412.661 367.575 412.661 363.448" style="fill:#fff; opacity:.4;"></polygon><rect x="399.85" y="345.909" width="3.753" height="1.442" style="opacity:.2;"></rect><rect x="399.85" y="371.524" width="24.58" height="1.442" style="fill:#2563EB;"></rect><rect x="399.85" y="371.524" width="24.58" height="1.442" style="fill:#fff; opacity:.2;"></rect><rect x="399.85" y="371.524" width="3.753" height="1.442" style="opacity:.2;"></rect></g><g><rect x="401.209" y="382.182" width="10.756" height="24.174" style="fill:#2563EB;"></rect><rect x="401.209" y="382.182" width="10.756" height="24.174" style="opacity:.2;"></rect><rect x="411.965" y="382.182" width="10.756" height="24.174" style="fill:#2563EB;"></rect><rect x="399.85" y="380.74" width="24.58" height="1.442" style="fill:#2563EB;"></rect><rect x="399.85" y="380.74" width="24.58" height="1.442" style="fill:#fff; opacity:.2;"></rect><polygon points="411.089 386.706 401.727 398.697 401.727 397.871 411.089 385.881 411.089 386.706" style="fill:#fff; opacity:.4;"></polygon><polygon points="411.089 390.007 401.727 401.998 401.727 400.554 411.089 388.563 411.089 390.007" style="fill:#fff; opacity:.4;"></polygon><polygon points="411.089 392.69 401.727 404.681 401.727 402.83 411.089 390.84 411.089 392.69" style="fill:#fff; opacity:.4;"></polygon><polygon points="422.024 384.432 412.661 396.423 412.661 395.597 422.024 383.606 422.024 384.432" style="fill:#fff; opacity:.4;"></polygon><polygon points="422.024 393.71 412.661 405.701 412.661 404.875 422.024 392.884 422.024 393.71" style="fill:#fff; opacity:.4;"></polygon><polygon points="412.661 398.279 422.024 386.289 422.024 390.415 412.661 402.406 412.661 398.279" style="fill:#fff; opacity:.4;"></polygon><rect x="399.85" y="380.74" width="3.753" height="1.442" style="opacity:.2;"></rect><rect x="399.85" y="406.356" width="24.58" height="1.442" style="fill:#2563EB;"></rect><rect x="399.85" y="406.356" width="24.58" height="1.442" style="fill:#fff; opacity:.2;"></rect><rect x="399.85" y="406.356" width="3.753" height="1.442" style="opacity:.2;"></rect></g></g></g></g><g id="freepik--Building_5--inject-415"><g><polygon points="232.117 170.894 249.296 170.894 267.837 170.894 286.378 170.894 286.378 114.848 232.117 170.894" style="fill:#2563EB;"></polygon><g><rect x="232.117" y="170.894" width="54.262" height="240.134" style="fill:#2563EB;"></rect><rect x="232.117" y="170.894" width="54.262" height="240.134" style="fill:#fff; opacity:.2;"></rect><rect x="232.117" y="170.894" width="17.18" height="240.134" style="opacity:.2;"></rect></g><g><rect x="252.845" y="178.887" width="7.275" height="230.493" style="fill:#2563EB;"></rect><rect x="237.069" y="178.887" width="7.275" height="230.493" style="fill:#2563EB;"></rect><rect x="264.2" y="178.887" width="7.275" height="230.493" style="fill:#2563EB;"></rect><rect x="275.554" y="178.887" width="7.275" height="230.493" style="fill:#2563EB;"></rect></g><g style="opacity:.2;"><rect x="252.845" y="178.887" width="7.275" height="230.493"></rect><rect x="237.069" y="178.887" width="7.275" height="230.493"></rect><rect x="264.2" y="178.887" width="7.275" height="230.493"></rect><rect x="275.554" y="178.887" width="7.275" height="230.493"></rect></g><polygon points="286.378 170.894 249.296 170.894 286.378 114.848 286.378 170.894" style="opacity:.2;"></polygon><polygon points="267.837 170.894 232.117 170.894 286.378 114.848 267.837 170.894" style="fill:none;"></polygon><polygon points="249.296 170.894 267.837 170.894 286.378 114.848 249.296 170.894" style="fill:#fff; opacity:.4;"></polygon><g><rect x="249.296" y="201.113" width="40.005" height="3.295" style="fill:#2563EB;"></rect><g><rect x="249.296" y="201.113" width="40.005" height="3.295" style="fill:#fff; opacity:.4;"></rect><rect x="249.296" y="201.113" width="5.539" height="3.295" style="opacity:.1;"></rect></g></g><g><rect x="228.462" y="201.112" width="15.882" height="3.295" transform="translate(472.806 405.519) rotate(180)" style="fill:#2563EB;"></rect><g><rect x="228.462" y="201.112" width="15.882" height="3.295" transform="translate(472.806 405.519) rotate(180)" style="fill:#fff; opacity:.4;"></rect><rect x="242.146" y="201.112" width="2.199" height="3.295" transform="translate(486.49 405.519) rotate(180)" style="opacity:.1;"></rect></g></g><g><g><rect x="249.296" y="230.465" width="40.005" height="3.295" style="fill:#2563EB;"></rect><g><rect x="249.296" y="230.465" width="40.005" height="3.295" style="fill:#fff; opacity:.4;"></rect><rect x="249.296" y="230.465" width="5.539" height="3.295" style="opacity:.1;"></rect></g></g><g><rect x="228.462" y="230.464" width="15.882" height="3.295" transform="translate(472.806 464.224) rotate(180)" style="fill:#2563EB;"></rect><g><rect x="228.462" y="230.464" width="15.882" height="3.295" transform="translate(472.806 464.224) rotate(180)" style="fill:#fff; opacity:.4;"></rect><rect x="242.146" y="230.464" width="2.199" height="3.295" transform="translate(486.49 464.224) rotate(180)" style="opacity:.1;"></rect></g></g></g><g><g><rect x="249.296" y="259.817" width="40.005" height="3.295" style="fill:#2563EB;"></rect><g><rect x="249.296" y="259.817" width="40.005" height="3.295" style="fill:#fff; opacity:.4;"></rect><rect x="249.296" y="259.817" width="5.539" height="3.295" style="opacity:.1;"></rect></g></g><g><rect x="228.462" y="259.817" width="15.882" height="3.295" transform="translate(472.806 522.928) rotate(180)" style="fill:#2563EB;"></rect><g><rect x="228.462" y="259.817" width="15.882" height="3.295" transform="translate(472.806 522.928) rotate(180)" style="fill:#fff; opacity:.4;"></rect><rect x="242.146" y="259.817" width="2.199" height="3.295" transform="translate(486.49 522.928) rotate(180)" style="opacity:.1;"></rect></g></g></g><g><g><rect x="249.296" y="289.169" width="40.005" height="3.295" style="fill:#2563EB;"></rect><g><rect x="249.296" y="289.169" width="40.005" height="3.295" style="fill:#fff; opacity:.4;"></rect><rect x="249.296" y="289.169" width="5.539" height="3.295" style="opacity:.1;"></rect></g></g><g><rect x="228.462" y="289.169" width="15.882" height="3.295" transform="translate(472.806 581.633) rotate(180)" style="fill:#2563EB;"></rect><g><rect x="228.462" y="289.169" width="15.882" height="3.295" transform="translate(472.806 581.633) rotate(180)" style="fill:#fff; opacity:.4;"></rect><rect x="242.146" y="289.169" width="2.199" height="3.295" transform="translate(486.49 581.633) rotate(180)" style="opacity:.1;"></rect></g></g></g><g><g><rect x="249.296" y="318.522" width="40.005" height="3.295" style="fill:#2563EB;"></rect><g><rect x="249.296" y="318.522" width="40.005" height="3.295" style="fill:#fff; opacity:.4;"></rect><rect x="249.296" y="318.522" width="5.539" height="3.295" style="opacity:.1;"></rect></g></g><g><rect x="228.462" y="318.521" width="15.882" height="3.295" transform="translate(472.806 640.337) rotate(180)" style="fill:#2563EB;"></rect><g><rect x="228.462" y="318.521" width="15.882" height="3.295" transform="translate(472.806 640.337) rotate(180)" style="fill:#fff; opacity:.4;"></rect><rect x="242.146" y="318.521" width="2.199" height="3.295" transform="translate(486.49 640.337) rotate(180)" style="opacity:.1;"></rect></g></g></g><g><g><rect x="249.296" y="347.874" width="40.005" height="3.295" style="fill:#2563EB;"></rect><g><rect x="249.296" y="347.874" width="40.005" height="3.295" style="fill:#fff; opacity:.4;"></rect><rect x="249.296" y="347.874" width="5.539" height="3.295" style="opacity:.1;"></rect></g></g><g><rect x="228.462" y="347.873" width="15.882" height="3.295" transform="translate(472.806 699.042) rotate(180)" style="fill:#2563EB;"></rect><g><rect x="228.462" y="347.873" width="15.882" height="3.295" transform="translate(472.806 699.042) rotate(180)" style="fill:#fff; opacity:.4;"></rect><rect x="242.146" y="347.873" width="2.199" height="3.295" transform="translate(486.49 699.042) rotate(180)" style="opacity:.1;"></rect></g></g></g><g><g><rect x="249.296" y="377.226" width="40.005" height="3.295" style="fill:#2563EB;"></rect><g><rect x="249.296" y="377.226" width="40.005" height="3.295" style="fill:#fff; opacity:.4;"></rect><rect x="249.296" y="377.226" width="5.539" height="3.295" style="opacity:.1;"></rect></g></g><g><rect x="228.462" y="377.226" width="15.882" height="3.295" transform="translate(472.806 757.746) rotate(180)" style="fill:#2563EB;"></rect><g><rect x="228.462" y="377.226" width="15.882" height="3.295" transform="translate(472.806 757.746) rotate(180)" style="fill:#fff; opacity:.4;"></rect><rect x="242.146" y="377.226" width="2.199" height="3.295" transform="translate(486.49 757.746) rotate(180)" style="opacity:.1;"></rect></g></g></g><g><g><rect x="249.296" y="407.733" width="40.005" height="3.295" style="fill:#2563EB;"></rect><g><rect x="249.296" y="407.733" width="40.005" height="3.295" style="fill:#fff; opacity:.4;"></rect><rect x="249.296" y="407.733" width="5.539" height="3.295" style="opacity:.1;"></rect></g></g><g><rect x="228.462" y="407.733" width="15.882" height="3.295" transform="translate(472.806 818.76) rotate(180)" style="fill:#2563EB;"></rect><g><rect x="228.462" y="407.733" width="15.882" height="3.295" transform="translate(472.806 818.76) rotate(180)" style="fill:#fff; opacity:.4;"></rect><rect x="242.146" y="407.733" width="2.199" height="3.295" transform="translate(486.49 818.76) rotate(180)" style="opacity:.1;"></rect></g></g></g></g></g><g id="freepik--Building_4--inject-415"><g><rect x="178.269" y="349.093" width="82.255" height="61.935" style="fill:#2563EB;"></rect><rect x="178.269" y="349.093" width="82.255" height="61.935" style="fill:#fff; opacity:.7;"></rect><rect x="178.269" y="349.093" width="28.178" height="61.935" style="opacity:.2;"></rect><rect x="215.137" y="368.026" width="19.134" height="43.003" style="fill:#2563EB;"></rect><rect x="215.137" y="368.026" width="19.134" height="43.003" style="opacity:.2;"></rect><rect x="234.271" y="368.026" width="19.134" height="43.003" style="fill:#2563EB;"></rect><rect x="212.72" y="365.46" width="43.726" height="2.565" style="fill:#2563EB;"></rect><rect x="212.72" y="365.46" width="43.726" height="2.565" style="fill:#fff; opacity:.3;"></rect><g style="opacity:.3;"><polygon points="232.714 376.074 216.058 397.404 216.058 395.935 232.714 374.604 232.714 376.074" style="fill:#fff;"></polygon><polygon points="232.714 381.946 216.058 403.276 216.058 400.707 232.714 379.376 232.714 381.946" style="fill:#fff;"></polygon><polygon points="232.714 386.718 216.058 408.048 216.058 404.756 232.714 383.426 232.714 386.718" style="fill:#fff;"></polygon><polygon points="252.166 372.027 235.51 393.358 235.51 391.889 252.166 370.558 252.166 372.027" style="fill:#fff;"></polygon><polygon points="252.166 388.532 235.51 409.862 235.51 408.393 252.166 387.063 252.166 388.532" style="fill:#fff;"></polygon><polygon points="235.51 396.661 252.166 375.33 252.166 382.671 235.51 404.002 235.51 396.661" style="fill:#fff;"></polygon></g><g><rect x="191.715" y="221.574" width="54.262" height="126.278" style="fill:#2563EB;"></rect><rect x="191.715" y="221.574" width="54.262" height="126.278" style="fill:#fff; opacity:.6;"></rect><rect x="191.715" y="221.574" width="17.18" height="126.278" style="opacity:.2;"></rect><rect x="212.444" y="225.777" width="7.275" height="121.209" style="fill:#2563EB;"></rect><rect x="223.798" y="225.777" width="7.275" height="121.209" style="fill:#2563EB;"></rect><rect x="235.153" y="225.777" width="7.275" height="121.209" style="fill:#2563EB;"></rect><g><rect x="214.434" y="252.9" width="34.466" height="1.733" style="fill:#2563EB;"></rect><rect x="208.895" y="252.9" width="40.005" height="1.733" style="fill:#2563EB;"></rect><rect x="208.895" y="252.9" width="40.005" height="1.733" style="fill:#fff; opacity:.5;"></rect><rect x="208.895" y="252.9" width="5.538" height="1.733" style="opacity:.1;"></rect></g><g><rect x="214.434" y="283.973" width="34.466" height="1.733" style="fill:#2563EB;"></rect><rect x="208.895" y="283.973" width="40.005" height="1.733" style="fill:#2563EB;"></rect><rect x="208.895" y="283.973" width="40.005" height="1.733" style="fill:#fff; opacity:.5;"></rect><rect x="208.895" y="283.973" width="5.538" height="1.733" style="opacity:.1;"></rect></g><g><rect x="214.434" y="315.046" width="34.466" height="1.733" style="fill:#2563EB;"></rect><rect x="208.895" y="315.046" width="40.005" height="1.733" style="fill:#2563EB;"></rect><rect x="208.895" y="315.046" width="40.005" height="1.733" style="fill:#fff; opacity:.5;"></rect><rect x="208.895" y="315.046" width="5.538" height="1.733" style="opacity:.1;"></rect></g><g><rect x="214.434" y="346.12" width="34.466" height="1.733" style="fill:#2563EB;"></rect><rect x="208.895" y="346.12" width="40.005" height="1.733" style="fill:#2563EB;"></rect><rect x="208.895" y="346.12" width="40.005" height="1.733" style="fill:#fff; opacity:.5;"></rect><rect x="208.895" y="346.12" width="5.538" height="1.733" style="opacity:.1;"></rect></g></g><g><rect x="176.037" y="347.486" width="86.72" height="1.607" style="fill:#2563EB;"></rect><rect x="176.037" y="347.486" width="86.72" height="1.607" style="fill:#fff; opacity:.3;"></rect><rect x="176.037" y="347.486" width="29.749" height="1.607" style="opacity:.2;"></rect></g><rect x="212.72" y="365.46" width="6.677" height="2.565" style="opacity:.2;"></rect></g></g><g id="freepik--Building_3--inject-415"><g><rect x="153.45" y="136.546" width="42.185" height="32.254" style="fill:#2563EB;"></rect><rect x="153.45" y="136.546" width="42.185" height="32.254" style="fill:#fff; opacity:.3;"></rect><rect x="153.45" y="136.546" width="11.508" height="32.254" style="opacity:.2;"></rect><rect x="146.909" y="168.8" width="54.262" height="242.154" style="fill:#2563EB;"></rect><rect x="146.909" y="168.8" width="54.262" height="242.154" style="fill:#fff; opacity:.3;"></rect><rect x="146.909" y="168.8" width="17.18" height="242.154" style="opacity:.2;"></rect><rect x="172.951" y="387.415" width="10.507" height="23.614" style="fill:#2563EB;"></rect><rect x="172.951" y="387.415" width="10.507" height="23.614" style="opacity:.2;"></rect><rect x="183.458" y="387.415" width="10.507" height="23.614" style="fill:#2563EB;"></rect><rect x="171.624" y="386.006" width="24.011" height="1.409" style="fill:#2563EB;"></rect><rect x="171.624" y="386.006" width="24.011" height="1.409" style="fill:#fff; opacity:.4;"></rect><rect x="153.022" y="148.483" width="28.789" height="4.916" transform="translate(318.358 -16.476) rotate(90)" style="fill:#2563EB;"></rect><rect x="162.855" y="148.483" width="28.789" height="4.917" transform="translate(328.191 -26.309) rotate(90)" style="fill:#2563EB;"></rect><rect x="141.514" y="148.483" width="28.789" height="4.917" transform="translate(306.849 -4.968) rotate(90)" style="fill:#2563EB;"></rect><rect x="172.688" y="148.482" width="28.789" height="4.917" transform="translate(338.024 -36.142) rotate(90)" style="fill:#2563EB;"></rect><g><rect x="146.909" y="375.293" width="17.18" height="4.916" style="fill:#2563EB;"></rect><rect x="146.909" y="365.46" width="17.18" height="4.917" style="fill:#2563EB;"></rect><rect x="146.909" y="355.628" width="17.18" height="4.916" style="fill:#2563EB;"></rect><rect x="146.909" y="345.794" width="17.18" height="4.917" style="fill:#2563EB;"></rect><rect x="146.909" y="335.961" width="17.18" height="4.916" style="fill:#2563EB;"></rect><rect x="146.909" y="326.128" width="17.18" height="4.917" style="fill:#2563EB;"></rect><rect x="146.909" y="316.295" width="17.18" height="4.916" style="fill:#2563EB;"></rect><rect x="146.909" y="306.462" width="17.18" height="4.917" style="fill:#2563EB;"></rect><rect x="146.909" y="296.629" width="17.18" height="4.916" style="fill:#2563EB;"></rect><rect x="146.909" y="286.796" width="17.18" height="4.916" style="fill:#2563EB;"></rect><rect x="146.909" y="276.963" width="17.18" height="4.917" style="fill:#2563EB;"></rect><rect x="146.909" y="267.13" width="17.18" height="4.917" style="fill:#2563EB;"></rect><rect x="146.909" y="257.297" width="17.18" height="4.916" style="fill:#2563EB;"></rect><rect x="146.909" y="247.464" width="17.18" height="4.916" style="fill:#2563EB;"></rect><rect x="146.909" y="237.631" width="17.18" height="4.916" style="fill:#2563EB;"></rect><rect x="146.909" y="227.798" width="17.18" height="4.917" style="fill:#2563EB;"></rect><rect x="146.909" y="217.965" width="17.18" height="4.916" style="fill:#2563EB;"></rect><rect x="146.909" y="208.132" width="17.18" height="4.917" style="fill:#2563EB;"></rect><rect x="146.909" y="198.299" width="17.18" height="4.916" style="fill:#2563EB;"></rect><rect x="146.909" y="188.466" width="17.18" height="4.917" style="fill:#2563EB;"></rect><rect x="146.909" y="178.633" width="17.18" height="4.917" style="fill:#2563EB;"></rect><rect x="146.909" y="168.8" width="17.18" height="4.917" style="fill:#2563EB;"></rect></g><rect x="164.089" y="168.8" width="37.082" height="4.917" style="fill:#2563EB;"></rect><rect x="164.089" y="178.633" width="37.082" height="4.917" style="fill:#2563EB;"></rect><rect x="164.089" y="188.466" width="37.082" height="4.917" style="fill:#2563EB;"></rect><rect x="164.089" y="198.299" width="37.082" height="4.916" style="fill:#2563EB;"></rect><rect x="164.089" y="208.132" width="37.082" height="4.917" style="fill:#2563EB;"></rect><rect x="164.089" y="217.965" width="37.082" height="4.916" style="fill:#2563EB;"></rect><rect x="164.089" y="227.798" width="37.082" height="4.917" style="fill:#2563EB;"></rect><rect x="164.089" y="237.631" width="37.082" height="4.916" style="fill:#2563EB;"></rect><rect x="164.089" y="247.464" width="37.082" height="4.916" style="fill:#2563EB;"></rect><rect x="164.089" y="257.297" width="37.082" height="4.916" style="fill:#2563EB;"></rect><rect x="164.089" y="267.13" width="37.082" height="4.917" style="fill:#2563EB;"></rect><rect x="164.089" y="276.963" width="37.082" height="4.917" style="fill:#2563EB;"></rect><rect x="164.089" y="286.796" width="37.082" height="4.916" style="fill:#2563EB;"></rect><rect x="164.089" y="296.629" width="37.082" height="4.916" style="fill:#2563EB;"></rect><rect x="164.089" y="306.462" width="37.082" height="4.917" style="fill:#2563EB;"></rect><rect x="164.089" y="316.295" width="37.082" height="4.916" style="fill:#2563EB;"></rect><rect x="164.089" y="326.128" width="37.082" height="4.917" style="fill:#2563EB;"></rect><rect x="164.089" y="335.961" width="37.082" height="4.916" style="fill:#2563EB;"></rect><rect x="164.089" y="345.794" width="37.082" height="4.917" style="fill:#2563EB;"></rect><rect x="164.089" y="355.628" width="37.082" height="4.916" style="fill:#2563EB;"></rect><rect x="164.089" y="365.46" width="37.082" height="4.917" style="fill:#2563EB;"></rect><rect x="164.089" y="375.293" width="37.082" height="4.916" style="fill:#2563EB;"></rect><rect x="171.624" y="386.006" width="3.666" height="1.409" style="opacity:.2;"></rect></g></g><g id="freepik--Building_2--inject-415"><g><g><rect x="122.678" y="255.668" width="59.86" height="155.361" style="fill:#2563EB;"></rect><rect x="122.678" y="255.668" width="59.86" height="155.361" style="fill:#fff; opacity:.7;"></rect><rect x="122.678" y="255.668" width="18.952" height="155.361" style="opacity:.2;"></rect></g><g><rect x="123.846" y="286.828" width="14.85" height="1.805" style="fill:#2563EB;"></rect><rect x="146.956" y="286.828" width="14.85" height="1.805" style="fill:#2563EB;"></rect><rect x="164.977" y="286.828" width="14.85" height="1.805" style="fill:#2563EB;"></rect><rect x="123.846" y="323.55" width="14.85" height="1.805" style="fill:#2563EB;"></rect><rect x="146.956" y="323.55" width="14.85" height="1.805" style="fill:#2563EB;"></rect><rect x="164.977" y="323.55" width="14.85" height="1.805" style="fill:#2563EB;"></rect><rect x="123.846" y="360.272" width="14.85" height="1.805" style="fill:#2563EB;"></rect><rect x="146.956" y="360.272" width="14.85" height="1.805" style="fill:#2563EB;"></rect><rect x="164.977" y="360.272" width="14.85" height="1.805" style="fill:#2563EB;"></rect><g><path d="M154.728,262.633h-2.46c-2.928,0-5.311,2.383-5.311,5.311v18.884h13.082v-18.884c0-2.928-2.383-5.311-5.311-5.311Z" style="fill:#2563EB;"></path><path d="M172.749,262.633h-2.46c-2.928,0-5.311,2.383-5.311,5.311v18.884h13.082v-18.884c0-2.928-2.383-5.311-5.311-5.311Z" style="fill:#2563EB;"></path><path d="M154.728,299.355h-2.46c-2.928,0-5.311,2.383-5.311,5.311v18.884h13.082v-18.884c0-2.928-2.383-5.311-5.311-5.311Z" style="fill:#2563EB;"></path><path d="M172.749,299.355h-2.46c-2.928,0-5.311,2.383-5.311,5.311v18.884h13.082v-18.884c0-2.928-2.383-5.311-5.311-5.311Z" style="fill:#2563EB;"></path><path d="M154.728,336.077h-2.46c-2.928,0-5.311,2.383-5.311,5.311v18.884h13.082v-18.884c0-2.928-2.383-5.311-5.311-5.311Z" style="fill:#2563EB;"></path><path d="M172.749,336.077h-2.46c-2.928,0-5.311,2.383-5.311,5.311v18.884h13.082v-18.884c0-2.928-2.383-5.311-5.311-5.311Z" style="fill:#2563EB;"></path><path d="M133.385,262.633h-2.46c-2.928,0-5.311,2.383-5.311,5.311v18.884h13.082v-18.884c0-2.928-2.383-5.311-5.311-5.311Z" style="fill:#2563EB;"></path><path d="M133.385,299.355h-2.46c-2.928,0-5.311,2.383-5.311,5.311v18.884h13.082v-18.884c0-2.928-2.383-5.311-5.311-5.311Z" style="fill:#2563EB;"></path><path d="M133.385,336.077h-2.46c-2.928,0-5.311,2.383-5.311,5.311v18.884h13.082v-18.884c0-2.928-2.383-5.311-5.311-5.311Z" style="fill:#2563EB;"></path><path d="M133.385,372.799h-2.46c-2.928,0-5.311,2.383-5.311,5.311v18.884h13.082v-18.884c0-2.928-2.383-5.311-5.311-5.311Z" style="fill:#2563EB;"></path><path d="M164.038,376.96h-3.455c-4.112,0-7.459,3.346-7.459,7.459v26.52h18.373v-26.52c0-4.112-3.346-7.459-7.459-7.459Z" style="fill:#2563EB;"></path></g><g style="opacity:.2;"><path d="M154.728,262.633h-2.46c-2.928,0-5.311,2.383-5.311,5.311v18.884h13.082v-18.884c0-2.928-2.383-5.311-5.311-5.311Z" style="fill:#fff;"></path><path d="M172.749,262.633h-2.46c-2.928,0-5.311,2.383-5.311,5.311v18.884h13.082v-18.884c0-2.928-2.383-5.311-5.311-5.311Z" style="fill:#fff;"></path><path d="M154.728,299.355h-2.46c-2.928,0-5.311,2.383-5.311,5.311v18.884h13.082v-18.884c0-2.928-2.383-5.311-5.311-5.311Z" style="fill:#fff;"></path><path d="M172.749,299.355h-2.46c-2.928,0-5.311,2.383-5.311,5.311v18.884h13.082v-18.884c0-2.928-2.383-5.311-5.311-5.311Z" style="fill:#fff;"></path><path d="M154.728,336.077h-2.46c-2.928,0-5.311,2.383-5.311,5.311v18.884h13.082v-18.884c0-2.928-2.383-5.311-5.311-5.311Z" style="fill:#fff;"></path><path d="M172.749,336.077h-2.46c-2.928,0-5.311,2.383-5.311,5.311v18.884h13.082v-18.884c0-2.928-2.383-5.311-5.311-5.311Z" style="fill:#fff;"></path><path d="M133.385,262.633h-2.46c-2.928,0-5.311,2.383-5.311,5.311v18.884h13.082v-18.884c0-2.928-2.383-5.311-5.311-5.311Z" style="fill:#fff;"></path><path d="M133.385,299.355h-2.46c-2.928,0-5.311,2.383-5.311,5.311v18.884h13.082v-18.884c0-2.928-2.383-5.311-5.311-5.311Z" style="fill:#fff;"></path><path d="M133.385,336.077h-2.46c-2.928,0-5.311,2.383-5.311,5.311v18.884h13.082v-18.884c0-2.928-2.383-5.311-5.311-5.311Z" style="fill:#fff;"></path><path d="M133.385,372.799h-2.46c-2.928,0-5.311,2.383-5.311,5.311v18.884h13.082v-18.884c0-2.928-2.383-5.311-5.311-5.311Z" style="fill:#fff;"></path><path d="M164.038,376.96h-3.455c-4.112,0-7.459,3.346-7.459,7.459v26.52h18.373v-26.52c0-4.112-3.346-7.459-7.459-7.459Z" style="fill:#fff;"></path></g><g style="opacity:.7;"><g><path d="M157.784,267.944v2.468h-3.658v-5.525h.602c1.685,0,3.057,1.371,3.057,3.056Z" style="fill:#fff; opacity:.8;"></path><rect x="154.126" y="271.669" width="3.658" height="5.621" style="fill:#fff; opacity:.8;"></rect><rect x="149.211" y="271.669" width="3.658" height="5.621" style="fill:#fff; opacity:.8;"></rect><path d="M152.267,264.888h.602v5.525h-3.658v-2.468c0-1.685,1.371-3.056,3.056-3.056Z" style="fill:#fff; opacity:.8;"></path><rect x="149.211" y="278.547" width="3.658" height="6.027" style="fill:#fff; opacity:.8;"></rect><rect x="154.126" y="278.547" width="3.658" height="6.027" style="fill:#fff; opacity:.8;"></rect><path d="M175.805,267.944v2.468h-3.658v-5.525h.602c1.685,0,3.056,1.371,3.056,3.056Z" style="fill:#fff; opacity:.8;"></path><rect x="172.147" y="271.669" width="3.658" height="5.621" style="fill:#fff; opacity:.8;"></rect><rect x="167.232" y="271.669" width="3.658" height="5.621" style="fill:#fff; opacity:.8;"></rect><path d="M170.288,264.888h.602v5.525h-3.658v-2.468c0-1.685,1.371-3.056,3.057-3.056Z" style="fill:#fff; opacity:.8;"></path><rect x="167.232" y="278.547" width="3.658" height="6.027" style="fill:#fff; opacity:.8;"></rect><rect x="172.147" y="278.547" width="3.658" height="6.027" style="fill:#fff; opacity:.8;"></rect></g><g><path d="M157.784,304.666v2.468h-3.658v-5.525h.602c1.685,0,3.057,1.371,3.057,3.057Z" style="fill:#fff; opacity:.8;"></path><rect x="154.126" y="308.391" width="3.658" height="5.621" style="fill:#fff; opacity:.8;"></rect><rect x="149.211" y="308.391" width="3.658" height="5.621" style="fill:#fff; opacity:.8;"></rect><path d="M152.267,301.61h.602v5.525h-3.658v-2.468c0-1.685,1.371-3.057,3.056-3.057Z" style="fill:#fff; opacity:.8;"></path><rect x="149.211" y="315.269" width="3.658" height="6.027" style="fill:#fff; opacity:.8;"></rect><rect x="154.126" y="315.269" width="3.658" height="6.027" style="fill:#fff; opacity:.8;"></rect></g><g style="opacity:.8;"><path d="M175.805,304.666v2.468h-3.658v-5.525h.602c1.685,0,3.056,1.371,3.056,3.057Z" style="fill:#fff;"></path><rect x="172.147" y="308.391" width="3.658" height="5.621" style="fill:#fff;"></rect><rect x="167.232" y="308.391" width="3.658" height="5.621" style="fill:#fff;"></rect><path d="M170.288,301.61h.602v5.525h-3.658v-2.468c0-1.685,1.371-3.057,3.057-3.057Z" style="fill:#fff;"></path><rect x="167.232" y="315.269" width="3.658" height="6.027" style="fill:#fff;"></rect><rect x="172.147" y="315.269" width="3.658" height="6.027" style="fill:#fff;"></rect></g><g><path d="M157.784,341.388v2.468h-3.658v-5.525h.602c1.685,0,3.057,1.371,3.057,3.057Z" style="fill:#fff;"></path><rect x="154.126" y="345.113" width="3.658" height="5.621" style="fill:#fff;"></rect><rect x="149.211" y="345.113" width="3.658" height="5.621" style="fill:#fff;"></rect><path d="M152.267,338.332h.602v5.525h-3.658v-2.468c0-1.685,1.371-3.057,3.056-3.057Z" style="fill:#fff;"></path><rect x="149.211" y="351.991" width="3.658" height="6.027" style="fill:#fff;"></rect><rect x="154.126" y="351.991" width="3.658" height="6.027" style="fill:#fff;"></rect></g><g><path d="M175.805,341.388v2.468h-3.658v-5.525h.602c1.685,0,3.056,1.371,3.056,3.057Z" style="fill:#fff;"></path><rect x="172.147" y="345.113" width="3.658" height="5.621" style="fill:#fff;"></rect><rect x="167.232" y="345.113" width="3.658" height="5.621" style="fill:#fff;"></rect><path d="M170.288,338.332h.602v5.525h-3.658v-2.468c0-1.685,1.371-3.057,3.057-3.057Z" style="fill:#fff;"></path><rect x="167.232" y="351.991" width="3.658" height="6.027" style="fill:#fff;"></rect><rect x="172.147" y="351.991" width="3.658" height="6.027" style="fill:#fff;"></rect></g><g><path d="M136.441,267.944v2.468h-3.658v-5.525h.602c1.685,0,3.057,1.371,3.057,3.056Z" style="fill:#fff; opacity:.8;"></path><rect x="132.783" y="271.669" width="3.658" height="5.621" style="fill:#fff; opacity:.8;"></rect><rect x="127.868" y="271.669" width="3.658" height="5.621" style="fill:#fff; opacity:.8;"></rect><path d="M130.924,264.888h.602v5.525h-3.658v-2.468c0-1.685,1.371-3.056,3.056-3.056Z" style="fill:#fff; opacity:.8;"></path><rect x="127.868" y="278.547" width="3.658" height="6.027" style="fill:#fff; opacity:.8;"></rect><rect x="132.783" y="278.547" width="3.658" height="6.027" style="fill:#fff; opacity:.8;"></rect></g><g><path d="M136.441,304.666v2.468h-3.658v-5.525h.602c1.685,0,3.057,1.371,3.057,3.057Z" style="fill:#fff; opacity:.8;"></path><rect x="132.783" y="308.391" width="3.658" height="5.621" style="fill:#fff; opacity:.8;"></rect><rect x="127.868" y="308.391" width="3.658" height="5.621" style="fill:#fff; opacity:.8;"></rect><path d="M130.924,301.61h.602v5.525h-3.658v-2.468c0-1.685,1.371-3.057,3.056-3.057Z" style="fill:#fff; opacity:.8;"></path><rect x="127.868" y="315.269" width="3.658" height="6.027" style="fill:#fff; opacity:.8;"></rect><rect x="132.783" y="315.269" width="3.658" height="6.027" style="fill:#fff; opacity:.8;"></rect></g><g style="opacity:.8;"><path d="M136.441,341.388v2.468h-3.658v-5.525h.602c1.685,0,3.057,1.371,3.057,3.057Z" style="fill:#fff;"></path><rect x="132.783" y="345.113" width="3.658" height="5.621" style="fill:#fff;"></rect><rect x="127.868" y="345.113" width="3.658" height="5.621" style="fill:#fff;"></rect><path d="M130.924,338.332h.602v5.525h-3.658v-2.468c0-1.685,1.371-3.057,3.056-3.057Z" style="fill:#fff;"></path><rect x="127.868" y="351.991" width="3.658" height="6.027" style="fill:#fff;"></rect><rect x="132.783" y="351.991" width="3.658" height="6.027" style="fill:#fff;"></rect></g><g><path d="M136.441,378.11v2.468h-3.658v-5.525h.602c1.685,0,3.057,1.371,3.057,3.056Z" style="fill:#fff;"></path><rect x="132.783" y="381.835" width="3.658" height="5.621" style="fill:#fff;"></rect><rect x="127.868" y="381.835" width="3.658" height="5.621" style="fill:#fff;"></rect><path d="M130.924,375.054h.602v5.525h-3.658v-2.468c0-1.685,1.371-3.056,3.056-3.056Z" style="fill:#fff;"></path><rect x="127.868" y="388.713" width="3.658" height="6.027" style="fill:#fff;"></rect><rect x="132.783" y="388.713" width="3.658" height="6.027" style="fill:#fff;"></rect></g><g><path d="M168.33,384.419v3.466h-5.138v-7.759h.845c2.367,0,4.292,1.925,4.292,4.292Z" style="fill:#fff;"></path><rect x="163.193" y="389.65" width="5.138" height="7.894" style="fill:#fff;"></rect><rect x="156.29" y="389.65" width="5.138" height="7.894" style="fill:#fff;"></rect><path d="M160.583,380.127h.845v7.759h-5.138v-3.466c0-2.367,1.926-4.292,4.293-4.292Z" style="fill:#fff;"></path><rect x="156.29" y="399.309" width="5.138" height="8.464" style="fill:#fff;"></rect><rect x="163.193" y="399.309" width="5.138" height="8.464" style="fill:#fff;"></rect></g></g><rect x="123.846" y="396.994" width="14.85" height="1.805" style="fill:#2563EB;"></rect></g><rect x="153.124" y="409.223" width="20.272" height="1.805" style="fill:#2563EB;"></rect></g></g><g id="freepik--Building_7--inject-415"><g><rect x="331.58" y="154.768" width="45.76" height="16.127" style="fill:#2563EB;"></rect><rect x="331.58" y="154.768" width="45.76" height="16.127" style="fill:#fff; opacity:.5;"></rect><rect x="339.318" y="144.095" width="30.284" height="10.672" style="fill:#2563EB;"></rect><rect x="339.318" y="144.095" width="30.284" height="10.672" style="fill:#fff; opacity:.4;"></rect><rect x="344.875" y="137.34" width="19.169" height="6.756" style="fill:#2563EB;"></rect><rect x="344.875" y="137.34" width="19.169" height="6.756" style="fill:#fff; opacity:.3;"></rect><rect x="349.491" y="133.962" width="9.938" height="3.502" style="fill:#2563EB;"></rect><rect x="349.491" y="133.962" width="9.938" height="3.502" style="fill:#fff; opacity:.2;"></rect><rect x="326.627" y="170.895" width="54.262" height="240.134" style="fill:#2563EB;"></rect><rect x="326.627" y="170.895" width="54.262" height="240.134" style="fill:#fff; opacity:.7;"></rect><rect x="326.627" y="170.895" width="17.18" height="240.134" style="opacity:.1;"></rect><g><rect x="347.356" y="178.887" width="7.275" height="230.493" style="fill:#2563EB;"></rect><rect x="331.58" y="178.887" width="7.275" height="230.493" style="fill:#2563EB;"></rect><rect x="358.71" y="178.887" width="7.275" height="230.493" style="fill:#2563EB;"></rect><rect x="370.065" y="178.887" width="7.275" height="230.493" style="fill:#2563EB;"></rect></g><g><rect x="331.58" y="154.768" width="12.228" height="16.127" style="opacity:.2;"></rect><rect x="339.318" y="144.095" width="8.092" height="10.672" style="opacity:.2;"></rect><rect x="344.875" y="137.34" width="5.122" height="6.756" style="opacity:.2;"></rect><rect x="349.491" y="133.962" width="2.656" height="3.502" style="opacity:.2;"></rect></g><g><g><rect x="343.807" y="201.113" width="40.005" height="3.295" style="fill:#2563EB;"></rect><rect x="343.807" y="201.113" width="40.005" height="3.295" style="fill:#fff; opacity:.3;"></rect><rect x="343.807" y="201.113" width="5.539" height="3.295" style="opacity:.2;"></rect></g><g><rect x="322.973" y="201.113" width="15.882" height="3.295" transform="translate(661.828 405.521) rotate(180)" style="fill:#2563EB;"></rect><rect x="322.973" y="201.113" width="15.882" height="3.295" transform="translate(661.828 405.521) rotate(180)" style="fill:#fff; opacity:.3;"></rect><rect x="336.656" y="201.113" width="2.199" height="3.295" transform="translate(675.511 405.521) rotate(180)" style="opacity:.2;"></rect></g></g><g><g><rect x="343.807" y="230.538" width="40.005" height="3.295" style="fill:#2563EB;"></rect><rect x="343.807" y="230.538" width="40.005" height="3.295" style="fill:#fff; opacity:.3;"></rect><rect x="343.807" y="230.538" width="5.539" height="3.295" style="opacity:.2;"></rect></g><g><rect x="322.973" y="230.538" width="15.882" height="3.295" transform="translate(661.828 464.371) rotate(180)" style="fill:#2563EB;"></rect><rect x="322.973" y="230.538" width="15.882" height="3.295" transform="translate(661.828 464.371) rotate(180)" style="fill:#fff; opacity:.3;"></rect><rect x="336.656" y="230.538" width="2.199" height="3.295" transform="translate(675.511 464.371) rotate(180)" style="opacity:.2;"></rect></g></g><g><g><rect x="343.807" y="259.962" width="40.005" height="3.295" style="fill:#2563EB;"></rect><rect x="343.807" y="259.962" width="40.005" height="3.295" style="fill:#fff; opacity:.3;"></rect><rect x="343.807" y="259.962" width="5.539" height="3.295" style="opacity:.2;"></rect></g><g><rect x="322.973" y="259.962" width="15.882" height="3.295" transform="translate(661.828 523.22) rotate(180)" style="fill:#2563EB;"></rect><rect x="322.973" y="259.962" width="15.882" height="3.295" transform="translate(661.828 523.22) rotate(180)" style="fill:#fff; opacity:.3;"></rect><rect x="336.656" y="259.962" width="2.199" height="3.295" transform="translate(675.511 523.22) rotate(180)" style="opacity:.2;"></rect></g></g><g><g><rect x="343.807" y="289.387" width="40.005" height="3.295" style="fill:#2563EB;"></rect><rect x="343.807" y="289.387" width="40.005" height="3.295" style="fill:#fff; opacity:.3;"></rect><rect x="343.807" y="289.387" width="5.539" height="3.295" style="opacity:.2;"></rect></g><g><rect x="322.973" y="289.387" width="15.882" height="3.295" transform="translate(661.828 582.069) rotate(180)" style="fill:#2563EB;"></rect><rect x="322.973" y="289.387" width="15.882" height="3.295" transform="translate(661.828 582.069) rotate(180)" style="fill:#fff; opacity:.3;"></rect><rect x="336.656" y="289.387" width="2.199" height="3.295" transform="translate(675.511 582.069) rotate(180)" style="opacity:.2;"></rect></g></g><g><g><rect x="343.807" y="318.811" width="40.005" height="3.295" style="fill:#2563EB;"></rect><rect x="343.807" y="318.811" width="40.005" height="3.295" style="fill:#fff; opacity:.3;"></rect><rect x="343.807" y="318.811" width="5.539" height="3.295" style="opacity:.2;"></rect></g><g><rect x="322.973" y="318.812" width="15.882" height="3.295" transform="translate(661.828 640.918) rotate(180)" style="fill:#2563EB;"></rect><rect x="322.973" y="318.812" width="15.882" height="3.295" transform="translate(661.828 640.918) rotate(180)" style="fill:#fff; opacity:.3;"></rect><rect x="336.656" y="318.812" width="2.199" height="3.295" transform="translate(675.511 640.918) rotate(180)" style="opacity:.2;"></rect></g></g><g><g><rect x="343.807" y="348.236" width="40.005" height="3.295" style="fill:#2563EB;"></rect><rect x="343.807" y="348.236" width="40.005" height="3.295" style="fill:#fff; opacity:.3;"></rect><rect x="343.807" y="348.236" width="5.539" height="3.295" style="opacity:.2;"></rect></g><g><rect x="322.973" y="348.236" width="15.882" height="3.295" transform="translate(661.828 699.767) rotate(180)" style="fill:#2563EB;"></rect><rect x="322.973" y="348.236" width="15.882" height="3.295" transform="translate(661.828 699.767) rotate(180)" style="fill:#fff; opacity:.3;"></rect><rect x="336.656" y="348.236" width="2.199" height="3.295" transform="translate(675.511 699.767) rotate(180)" style="opacity:.2;"></rect></g></g><g><g><rect x="343.807" y="377.661" width="40.005" height="3.295" style="fill:#2563EB;"></rect><rect x="343.807" y="377.661" width="40.005" height="3.295" style="fill:#fff; opacity:.3;"></rect><rect x="343.807" y="377.661" width="5.539" height="3.295" style="opacity:.2;"></rect></g><g><rect x="322.973" y="377.661" width="15.882" height="3.295" transform="translate(661.828 758.616) rotate(180)" style="fill:#2563EB;"></rect><rect x="322.973" y="377.661" width="15.882" height="3.295" transform="translate(661.828 758.616) rotate(180)" style="fill:#fff; opacity:.3;"></rect><rect x="336.656" y="377.661" width="2.199" height="3.295" transform="translate(675.511 758.616) rotate(180)" style="opacity:.2;"></rect></g></g></g></g><g id="freepik--Building_6--inject-415"><g><rect x="274.9" y="265.977" width="54.261" height="143.913" style="fill:#2563EB;"></rect><rect x="274.9" y="265.977" width="54.261" height="143.913" style="fill:#fff; opacity:.7;"></rect><rect x="274.9" y="265.977" width="17.18" height="143.913" style="opacity:.2;"></rect><g><rect x="295.629" y="269.18" width="7.275" height="16.218" style="opacity:.2;"></rect><rect x="306.983" y="269.18" width="7.275" height="16.218" style="opacity:.2;"></rect><rect x="318.338" y="269.18" width="7.275" height="16.218" style="opacity:.2;"></rect><rect x="295.629" y="288.725" width="7.275" height="16.218" style="opacity:.2;"></rect><rect x="306.983" y="288.725" width="7.275" height="16.218" style="opacity:.2;"></rect><rect x="279.853" y="269.18" width="7.275" height="16.218" style="opacity:.2;"></rect><rect x="279.853" y="288.725" width="7.275" height="16.218" style="opacity:.2;"></rect><rect x="318.338" y="288.725" width="7.275" height="16.218" style="opacity:.2;"></rect><rect x="295.629" y="317.691" width="7.275" height="16.218" style="opacity:.2;"></rect><rect x="306.983" y="317.691" width="7.275" height="16.218" style="opacity:.2;"></rect><rect x="318.338" y="317.691" width="7.275" height="16.218" style="opacity:.2;"></rect><rect x="295.629" y="337.235" width="7.275" height="16.218" style="opacity:.2;"></rect><rect x="306.983" y="337.235" width="7.275" height="16.218" style="opacity:.2;"></rect><rect x="279.853" y="317.691" width="7.275" height="16.218" style="opacity:.2;"></rect><rect x="279.853" y="337.235" width="7.275" height="16.218" style="opacity:.2;"></rect><rect x="318.338" y="337.235" width="7.275" height="16.218" style="opacity:.2;"></rect><g><rect x="296.956" y="338.562" width="4.622" height="13.565" style="fill:#2563EB;"></rect><rect x="308.31" y="338.562" width="4.622" height="13.565" style="fill:#2563EB;"></rect><rect x="281.179" y="338.562" width="4.622" height="13.565" style="fill:#2563EB;"></rect><rect x="319.664" y="338.562" width="4.622" height="13.565" style="fill:#2563EB;"></rect></g><rect x="284.62" y="387.847" width="3.804" height="2.122" style="fill:#2563EB;"></rect><rect x="288.288" y="383.481" width="3.804" height="2.123" style="fill:#2563EB;"></rect><rect x="296.009" y="377.969" width="3.804" height="2.123" style="fill:#2563EB;"></rect><rect x="299.677" y="382.103" width="3.804" height="2.122" style="fill:#2563EB;"></rect><rect x="299.677" y="373.603" width="3.804" height="2.123" style="fill:#2563EB;"></rect><rect x="301.579" y="377.969" width="3.804" height="2.123" style="fill:#2563EB;"></rect><rect x="309.571" y="369.622" width="3.804" height="2.123" style="fill:#2563EB;"></rect><rect x="313.24" y="373.756" width="3.804" height="2.123" style="fill:#2563EB;"></rect><rect x="313.24" y="365.256" width="3.804" height="2.123" style="fill:#2563EB;"></rect><rect x="315.142" y="369.622" width="3.804" height="2.123" style="fill:#2563EB;"></rect><rect x="315.03" y="378.874" width="3.804" height="2.123" style="fill:#2563EB;"></rect><rect x="318.698" y="383.008" width="3.804" height="2.122" style="fill:#2563EB;"></rect><rect x="318.698" y="374.508" width="3.804" height="2.123" style="fill:#2563EB;"></rect><rect x="325.489" y="369.971" width="3.804" height="2.123" style="fill:#2563EB;"></rect><rect x="320.6" y="378.874" width="3.804" height="2.123" style="fill:#2563EB;"></rect><rect x="274.968" y="370.567" width="3.804" height="2.123" style="fill:#2563EB;"></rect><rect x="278.637" y="374.701" width="3.804" height="2.123" style="fill:#2563EB;"></rect><rect x="278.637" y="366.201" width="3.804" height="2.123" style="fill:#2563EB;"></rect><rect x="274.968" y="399.547" width="3.804" height="2.123" style="fill:#2563EB;"></rect><rect x="278.637" y="403.681" width="3.804" height="2.123" style="fill:#2563EB;"></rect><rect x="278.637" y="395.181" width="3.804" height="2.123" style="fill:#2563EB;"></rect><rect x="280.539" y="370.567" width="3.804" height="2.123" style="fill:#2563EB;"></rect><rect x="297.365" y="366.467" width="3.804" height="2.123" style="fill:#2563EB;"></rect><g><rect x="272.586" y="263.193" width="58.891" height="3.214" style="fill:#2563EB;"></rect><rect x="272.586" y="263.193" width="58.891" height="3.214" style="fill:#fff; opacity:.2;"></rect><rect x="270.586" y="259.979" width="62.891" height="3.214" style="fill:#2563EB;"></rect><rect x="270.586" y="259.979" width="62.891" height="3.214" style="fill:#fff; opacity:.4;"></rect><rect x="272.586" y="263.193" width="19.574" height="3.214" style="opacity:.2;"></rect><rect x="270.586" y="259.979" width="21.574" height="3.214" style="opacity:.2;"></rect></g><g><rect x="272.586" y="310.269" width="58.891" height="3.214" style="fill:#2563EB;"></rect><rect x="272.586" y="310.269" width="58.891" height="3.214" style="fill:#fff; opacity:.2;"></rect><rect x="272.586" y="310.269" width="19.574" height="3.214" style="opacity:.2;"></rect></g><g><rect x="272.586" y="358.776" width="58.891" height="3.214" style="fill:#2563EB;"></rect><rect x="272.586" y="358.776" width="58.891" height="3.214" style="fill:#fff; opacity:.2;"></rect><rect x="272.586" y="358.776" width="19.574" height="3.214" style="opacity:.2;"></rect></g><g><rect x="272.586" y="407.814" width="58.891" height="3.214" style="fill:#2563EB;"></rect><rect x="272.586" y="407.814" width="58.891" height="3.214" style="fill:#fff; opacity:.2;"></rect><rect x="272.586" y="407.814" width="19.574" height="3.214" style="opacity:.2;"></rect></g><g><rect x="296.956" y="270.506" width="4.622" height="13.565" style="fill:#2563EB;"></rect><rect x="308.31" y="270.506" width="4.622" height="13.565" style="fill:#2563EB;"></rect><rect x="319.664" y="270.506" width="4.622" height="13.565" style="fill:#2563EB;"></rect><rect x="296.956" y="290.051" width="4.622" height="13.565" style="fill:#2563EB;"></rect><rect x="308.31" y="290.051" width="4.622" height="13.565" style="fill:#2563EB;"></rect><rect x="281.179" y="270.506" width="4.622" height="13.565" style="fill:#2563EB;"></rect><rect x="281.179" y="290.051" width="4.622" height="13.565" style="fill:#2563EB;"></rect><rect x="319.664" y="290.051" width="4.622" height="13.565" style="fill:#2563EB;"></rect><rect x="296.956" y="319.017" width="4.622" height="13.565" style="fill:#2563EB;"></rect><rect x="308.31" y="319.017" width="4.622" height="13.565" style="fill:#2563EB;"></rect><rect x="319.664" y="319.017" width="4.622" height="13.565" style="fill:#2563EB;"></rect><rect x="281.179" y="319.017" width="4.622" height="13.565" style="fill:#2563EB;"></rect></g><rect x="301.525" y="390.354" width="9.096" height="20.277" style="fill:#2563EB;"></rect><rect x="303.184" y="392.013" width="5.779" height="16.959" style="opacity:.2;"></rect><rect x="310.621" y="390.354" width="9.096" height="20.277" style="fill:#2563EB;"></rect><rect x="312.28" y="392.013" width="5.779" height="16.959" style="opacity:.2;"></rect><g><rect x="294.513" y="285.398" width="9.507" height="1.115" style="fill:#2563EB;"></rect><rect x="305.867" y="285.398" width="9.508" height="1.115" style="fill:#2563EB;"></rect><rect x="317.222" y="285.398" width="9.507" height="1.115" style="fill:#2563EB;"></rect><rect x="294.513" y="304.942" width="9.507" height="1.115" style="fill:#2563EB;"></rect><rect x="278.737" y="285.398" width="9.507" height="1.115" style="fill:#2563EB;"></rect><rect x="278.737" y="304.942" width="9.507" height="1.115" style="fill:#2563EB;"></rect><rect x="305.867" y="304.942" width="9.508" height="1.115" style="fill:#2563EB;"></rect><rect x="317.222" y="304.942" width="9.507" height="1.115" style="fill:#2563EB;"></rect><rect x="294.513" y="333.909" width="9.507" height="1.115" style="fill:#2563EB;"></rect><rect x="305.867" y="333.909" width="9.508" height="1.115" style="fill:#2563EB;"></rect><rect x="317.222" y="333.909" width="9.507" height="1.115" style="fill:#2563EB;"></rect><rect x="294.513" y="353.453" width="9.507" height="1.115" style="fill:#2563EB;"></rect><rect x="278.737" y="333.909" width="9.507" height="1.115" style="fill:#2563EB;"></rect><rect x="278.737" y="353.453" width="9.507" height="1.115" style="fill:#2563EB;"></rect><rect x="305.867" y="353.453" width="9.508" height="1.115" style="fill:#2563EB;"></rect><rect x="317.222" y="353.453" width="9.507" height="1.115" style="fill:#2563EB;"></rect><rect x="299.856" y="389.239" width="22.119" height="1.115" style="fill:#2563EB;"></rect></g></g></g></g><g id="freepik--Trees--inject-415"><g><path d="M74.612,386.196s-8.061,3.781-8.885-4.833c0,0-6.068-6.517,1.948-8.24,0,0,.15-6.742,6.068-3.371,0,0-.45-8.24,7.067-4.843,0,0,4.842-6.655,8.55-.007,0,0,4.982-.019,3.184,6.273,0,0,9.364,3.745,4.27,8.24,0,0,1.216,7.519-5.521,7.194,0,0-5.041,4.567-9.461-.527,0,0-4.253,3.748-7.22,.114Z" style="fill:#2563EB;"></path><path d="M74.612,386.196s-8.061,3.781-8.885-4.833c0,0-6.068-6.517,1.948-8.24,0,0,.15-6.742,6.068-3.371,0,0-.45-8.24,7.067-4.843,0,0,4.842-6.655,8.55-.007,0,0,4.982-.019,3.184,6.273,0,0,9.364,3.745,4.27,8.24,0,0,1.216,7.519-5.521,7.194,0,0-5.041,4.567-9.461-.527,0,0-4.253,3.748-7.22,.114Z" style="opacity:.3;"></path><path d="M92.185,381.755s-5.643,4.642-10.59-.536c0,0-4.76,3.81-8.081,.116,0,0-7.305,2.778-9.945-4.913l-.014-.071c-.286,2.366,2.173,5.011,2.173,5.011,.824,8.614,8.885,4.833,8.885,4.833,2.967,3.635,7.22-.114,7.22-.114,4.419,5.094,9.461,.527,9.461,.527,5.583,.269,5.703-4.836,5.581-6.598-.768,1.081-2.18,1.854-4.69,1.744Z" style="opacity:.2;"></path><path d="M72.905,380.51s3.242,4.096,3.934,5.678c.838,1.918,1.296,5.846,1.571,8.224,.386,3.34,.351,10.2-.56,13.436-.273,.971-1.773,3.623-1.773,3.623h7.528s-1.201-4.159-1.417-5.583c-.395-2.606-.418-7.941,0-10.543,.278-1.73,1.41-5.09,2.194-6.657,.81-1.619,2.698-4.731,3.826-6.147,.84-1.055,3.825-3.804,3.825-3.804h-1l-3.602,3.161-.988-3.719h-.93l1.278,4.532-3.65,5.193-2.634,4.339s-2.452-5.266-2.3-7.133c.059-.719,1.32-2.568,1.32-2.568h-.93l-1.562,1.953-3.493-4.455-.637,.471Z" style="fill:#263238;"></path></g><g><path d="M294.293,383.703s8.856,4.154,9.761-5.31c0,0,6.666-7.16-2.14-9.052,0,0-.165-7.407-6.666-3.703,0,0,.494-9.052-7.764-5.32,0,0-5.32-7.311-9.394-.008,0,0-5.473-.021-3.498,6.892,0,0-10.287,4.115-4.691,9.052,0,0-1.336,8.26,6.065,7.903,0,0,5.538,5.017,10.394-.579,0,0,4.672,4.118,7.932,.125Z" style="fill:#2563EB;"></path><path d="M294.293,383.703s8.856,4.154,9.761-5.31c0,0,6.666-7.16-2.14-9.052,0,0-.165-7.407-6.666-3.703,0,0,.494-9.052-7.764-5.32,0,0-5.32-7.311-9.394-.008,0,0-5.473-.021-3.498,6.892,0,0-10.287,4.115-4.691,9.052,0,0-1.336,8.26,6.065,7.903,0,0,5.538,5.017,10.394-.579,0,0,4.672,4.118,7.932,.125Z" style="opacity:.3;"></path><path d="M274.988,378.825s6.199,5.1,11.634-.589c0,0,5.229,4.186,8.878,.127,0,0,8.025,3.051,10.926-5.397l.015-.078c.314,2.599-2.387,5.505-2.387,5.505-.905,9.464-9.761,5.31-9.761,5.31-3.26,3.993-7.932-.125-7.932-.125-4.855,5.596-10.394,.579-10.394,.579-6.133,.296-6.265-5.313-6.131-7.248,.844,1.187,2.395,2.037,5.152,1.916Z" style="opacity:.2;"></path><path d="M296.169,377.457s-3.562,4.499-4.322,6.238c-.921,2.107-1.424,6.423-1.726,9.035-.424,3.669-.385,11.205,.615,14.761,.3,1.067,1.948,3.981,1.948,3.981h-8.27s1.32-4.569,1.557-6.133c.434-2.863,.459-8.724,0-11.583-.305-1.901-1.549-5.592-2.41-7.314-.89-1.778-2.964-5.197-4.203-6.753-.923-1.159-4.203-4.179-4.203-4.179h1.099l3.958,3.472,1.085-4.085h1.021l-1.404,4.979,4.01,5.705,2.893,4.766s2.694-5.785,2.526-7.837c-.065-.791-1.45-2.821-1.45-2.821h1.021l1.716,2.145,3.838-4.895,.7,.518Z" style="fill:#263238;"></path></g><g><path d="M426.867,386.186s8.064,3.783,8.889-4.835c0,0,6.07-6.52-1.948-8.243,0,0-.15-6.744-6.07-3.372,0,0,.45-8.243-7.07-4.845,0,0-4.844-6.657-8.554-.007,0,0-4.984-.019-3.185,6.275,0,0-9.367,3.747-4.271,8.243,0,0-1.217,7.522,5.523,7.197,0,0,5.043,4.568,9.465-.527,0,0,4.254,3.75,7.223,.114Z" style="fill:#2563EB;"></path><path d="M426.867,386.186s8.064,3.783,8.889-4.835c0,0,6.07-6.52-1.948-8.243,0,0-.15-6.744-6.07-3.372,0,0,.45-8.243-7.07-4.845,0,0-4.844-6.657-8.554-.007,0,0-4.984-.019-3.185,6.275,0,0-9.367,3.747-4.271,8.243,0,0-1.217,7.522,5.523,7.197,0,0,5.043,4.568,9.465-.527,0,0,4.254,3.75,7.223,.114Z" style="opacity:.3;"></path><path d="M409.288,381.744s5.645,4.644,10.594-.536c0,0,4.762,3.812,8.084,.116,0,0,7.308,2.779,9.949-4.915l.014-.071c.286,2.367-2.174,5.013-2.174,5.013-.824,8.618-8.889,4.835-8.889,4.835-2.969,3.636-7.223-.114-7.223-.114-4.421,5.096-9.465,.527-9.465,.527-5.585,.269-5.705-4.838-5.583-6.6,.768,1.081,2.181,1.855,4.692,1.745Z" style="opacity:.2;"></path><path d="M428.575,380.498s-3.244,4.097-3.935,5.68c-.839,1.919-1.297,5.849-1.572,8.228-.386,3.341-.351,10.203,.56,13.441,.273,.971,1.774,3.625,1.774,3.625h-7.531s1.202-4.161,1.418-5.585c.396-2.607,.418-7.944,0-10.547-.278-1.731-1.41-5.092-2.194-6.66-.81-1.619-2.699-4.733-3.827-6.149-.84-1.056-3.827-3.806-3.827-3.806h1.001l3.604,3.162,.988-3.72h.93l-1.279,4.534,3.651,5.195,2.635,4.34s2.453-5.268,2.301-7.136c-.059-.72-1.321-2.569-1.321-2.569h.93l1.563,1.953,3.495-4.457,.638,.472Z" style="fill:#263238;"></path></g></g><g id="freepik--Street_lamps--inject-415"><g><path d="M398.738,372.602h-.869c0-9.796,7.97-17.767,17.767-17.767v.869c-9.318,0-16.898,7.58-16.898,16.898Z"></path><path d="M398.738,372.602h-.869c0-9.317-7.58-16.898-16.898-16.898v-.869c9.797,0,17.767,7.97,17.767,17.767Z" style="fill:#263238;"></path><g style="opacity:.3;"><path d="M398.738,372.602h-.869c0-9.317-7.58-16.898-16.898-16.898v-.869c9.797,0,17.767,7.97,17.767,17.767Z" style="fill:#fff;"></path></g><path d="M398.738,372.602h-.869c0-9.796,7.97-17.767,17.767-17.767v.869c-9.318,0-16.898,7.58-16.898,16.898Z" style="fill:#263238;"></path><g style="opacity:.3;"><path d="M398.738,372.602h-.869c0-9.796,7.97-17.767,17.767-17.767v.869c-9.318,0-16.898,7.58-16.898,16.898Z" style="fill:#fff;"></path></g><path d="M414.397,356.365h10.414c0-1.445-1.222-2.588-2.664-2.492l-6.816,.455c-.526,.035-.935,.472-.935,.999v1.038Z" style="fill:#263238;"></path><path d="M414.397,356.365h10.414c0-1.445-1.222-2.588-2.664-2.492l-6.816,.455c-.526,.035-.935,.472-.935,.999v1.038Z" style="fill:#fff; opacity:.5;"></path><path d="M415.411,357.379h8.386c.56,0,1.014-.454,1.014-1.014h-10.414c0,.56,.454,1.014,1.014,1.014Z" style="fill:#2563EB;"></path><path d="M382.21,356.365h-10.414c0-1.445,1.222-2.588,2.664-2.492l6.816,.455c.526,.035,.935,.472,.935,.999v1.038Z" style="fill:#263238;"></path><path d="M382.21,356.365h-10.414c0-1.445,1.222-2.588,2.664-2.492l6.816,.455c.526,.035,.935,.472,.935,.999v1.038Z" style="fill:#fff; opacity:.5;"></path><path d="M381.196,357.379h-8.386c-.56,0-1.014-.454-1.014-1.014h10.414c0,.56-.454,1.014-1.014,1.014Z" style="fill:#2563EB;"></path><path d="M415.411,357.379h8.386c.56,0,1.014-.454,1.014-1.014h-10.414c0,.56,.454,1.014,1.014,1.014Z" style="fill:#fff; opacity:.8;"></path><path d="M381.196,357.379h-8.386c-.56,0-1.014-.454-1.014-1.014h10.414c0,.56-.454,1.014-1.014,1.014Z" style="fill:#fff; opacity:.8;"></path><path d="M401.024,411.636h-5.44l.647-12.978c.027-.541,.473-.966,1.015-.966h2.117c.542,0,.988,.425,1.015,.966l.647,12.978Z" style="fill:#263238;"></path><path d="M397.908,370.532h.792c.367,0,.665,.298,.665,.665v27.587h-2.121v-27.586c0-.367,.298-.665,.665-.665Z" style="fill:#263238;"></path></g><g><path d="M266.02,372.602h-.869c0-9.796,7.97-17.767,17.767-17.767v.869c-9.318,0-16.898,7.58-16.898,16.898Z"></path><path d="M266.02,372.602h-.869c0-9.317-7.58-16.898-16.898-16.898v-.869c9.797,0,17.767,7.97,17.767,17.767Z" style="fill:#263238;"></path><g style="opacity:.3;"><path d="M266.02,372.602h-.869c0-9.317-7.58-16.898-16.898-16.898v-.869c9.797,0,17.767,7.97,17.767,17.767Z" style="fill:#fff;"></path></g><path d="M266.02,372.602h-.869c0-9.796,7.97-17.767,17.767-17.767v.869c-9.318,0-16.898,7.58-16.898,16.898Z" style="fill:#263238;"></path><g style="opacity:.3;"><path d="M266.02,372.602h-.869c0-9.796,7.97-17.767,17.767-17.767v.869c-9.318,0-16.898,7.58-16.898,16.898Z" style="fill:#fff;"></path></g><path d="M281.679,356.365h10.414c0-1.445-1.222-2.588-2.664-2.492l-6.816,.455c-.526,.035-.935,.472-.935,.999v1.038Z" style="fill:#263238;"></path><path d="M281.679,356.365h10.414c0-1.445-1.222-2.588-2.664-2.492l-6.816,.455c-.526,.035-.935,.472-.935,.999v1.038Z" style="fill:#fff; opacity:.5;"></path><path d="M282.693,357.379h8.386c.56,0,1.014-.454,1.014-1.014h-10.414c0,.56,.454,1.014,1.014,1.014Z" style="fill:#2563EB;"></path><path d="M249.492,356.365h-10.414c0-1.445,1.222-2.588,2.664-2.492l6.816,.455c.526,.035,.935,.472,.935,.999v1.038Z" style="fill:#263238;"></path><path d="M249.492,356.365h-10.414c0-1.445,1.222-2.588,2.664-2.492l6.816,.455c.526,.035,.935,.472,.935,.999v1.038Z" style="fill:#fff; opacity:.5;"></path><path d="M248.478,357.379h-8.386c-.56,0-1.014-.454-1.014-1.014h10.414c0,.56-.454,1.014-1.014,1.014Z" style="fill:#2563EB;"></path><path d="M282.693,357.379h8.386c.56,0,1.014-.454,1.014-1.014h-10.414c0,.56,.454,1.014,1.014,1.014Z" style="fill:#fff; opacity:.8;"></path><path d="M248.478,357.379h-8.386c-.56,0-1.014-.454-1.014-1.014h10.414c0,.56-.454,1.014-1.014,1.014Z" style="fill:#fff; opacity:.8;"></path><path d="M268.306,411.636h-5.44l.647-12.978c.027-.541,.473-.966,1.015-.966h2.117c.542,0,.988,.425,1.015,.966l.647,12.978Z" style="fill:#263238;"></path><path d="M265.19,370.532h.792c.367,0,.665,.298,.665,.665v27.586h-2.121v-27.586c0-.367,.298-.665,.665-.665Z" style="fill:#263238;"></path></g><g><path d="M123.113,372.602h-.869c0-9.796,7.97-17.767,17.767-17.767v.869c-9.318,0-16.898,7.58-16.898,16.898Z"></path><path d="M123.113,372.602h-.869c0-9.317-7.58-16.898-16.898-16.898v-.869c9.797,0,17.767,7.97,17.767,17.767Z" style="fill:#263238;"></path><g style="opacity:.3;"><path d="M123.113,372.602h-.869c0-9.317-7.58-16.898-16.898-16.898v-.869c9.797,0,17.767,7.97,17.767,17.767Z" style="fill:#fff;"></path></g><path d="M123.113,372.602h-.869c0-9.796,7.97-17.767,17.767-17.767v.869c-9.318,0-16.898,7.58-16.898,16.898Z" style="fill:#263238;"></path><g style="opacity:.3;"><path d="M123.113,372.602h-.869c0-9.796,7.97-17.767,17.767-17.767v.869c-9.318,0-16.898,7.58-16.898,16.898Z" style="fill:#fff;"></path></g><path d="M138.772,356.365h10.414c0-1.445-1.222-2.588-2.664-2.492l-6.816,.455c-.526,.035-.935,.472-.935,.999v1.038Z" style="fill:#263238;"></path><path d="M138.772,356.365h10.414c0-1.445-1.222-2.588-2.664-2.492l-6.816,.455c-.526,.035-.935,.472-.935,.999v1.038Z" style="fill:#fff; opacity:.5;"></path><path d="M139.786,357.379h8.386c.56,0,1.014-.454,1.014-1.014h-10.414c0,.56,.454,1.014,1.014,1.014Z" style="fill:#2563EB;"></path><path d="M106.585,356.365h-10.414c0-1.445,1.222-2.588,2.664-2.492l6.816,.455c.526,.035,.935,.472,.935,.999v1.038Z" style="fill:#263238;"></path><path d="M106.585,356.365h-10.414c0-1.445,1.222-2.588,2.664-2.492l6.816,.455c.526,.035,.935,.472,.935,.999v1.038Z" style="fill:#fff; opacity:.5;"></path><path d="M105.571,357.379h-8.386c-.56,0-1.014-.454-1.014-1.014h10.414c0,.56-.454,1.014-1.014,1.014Z" style="fill:#2563EB;"></path><path d="M139.786,357.379h8.386c.56,0,1.014-.454,1.014-1.014h-10.414c0,.56,.454,1.014,1.014,1.014Z" style="fill:#fff; opacity:.8;"></path><path d="M105.571,357.379h-8.386c-.56,0-1.014-.454-1.014-1.014h10.414c0,.56-.454,1.014-1.014,1.014Z" style="fill:#fff; opacity:.8;"></path><path d="M125.399,411.636h-5.44l.647-12.978c.027-.541,.473-.966,1.015-.966h2.117c.542,0,.988,.425,1.015,.966l.647,12.978Z" style="fill:#263238;"></path><path d="M122.283,370.532h.792c.367,0,.665,.298,.665,.665v27.586h-2.121v-27.586c0-.367,.298-.665,.665-.665Z" style="fill:#263238;"></path></g></g><g id="freepik--Sidewalk--inject-415"><g><g><path d="M53.471,411.028h17.341c.513,0,.929,.416,.929,.929v1.074h-19.198v-1.074c0-.513,.416-.929,.929-.929Z" style="fill:#2563EB;"></path><path d="M53.471,411.028h17.341c.513,0,.929,.416,.929,.929v1.074h-19.198v-1.074c0-.513,.416-.929,.929-.929Z" style="opacity:.2;"></path><path d="M72.669,411.028h17.341c.513,0,.929,.416,.929,.929v1.074h-19.198v-1.074c0-.513,.416-.929,.929-.929Z" style="fill:#2563EB;"></path><path d="M72.669,411.028h17.341c.513,0,.929,.416,.929,.929v1.074h-19.198v-1.074c0-.513,.416-.929,.929-.929Z" style="fill:#fff; opacity:.6;"></path></g><g><path d="M91.973,411.028h17.341c.513,0,.929,.416,.929,.929v1.074h-19.198v-1.074c0-.513,.416-.929,.929-.929Z" style="fill:#2563EB;"></path><path d="M91.973,411.028h17.341c.513,0,.929,.416,.929,.929v1.074h-19.198v-1.074c0-.513,.416-.929,.929-.929Z" style="opacity:.2;"></path><path d="M111.171,411.028h17.341c.513,0,.929,.416,.929,.929v1.074h-19.198v-1.074c0-.513,.416-.929,.929-.929Z" style="fill:#2563EB;"></path><path d="M111.171,411.028h17.341c.513,0,.929,.416,.929,.929v1.074h-19.198v-1.074c0-.513,.416-.929,.929-.929Z" style="fill:#fff; opacity:.6;"></path></g><g><path d="M130.475,411.028h17.341c.513,0,.929,.416,.929,.929v1.074h-19.198v-1.074c0-.513,.416-.929,.929-.929Z" style="fill:#2563EB;"></path><path d="M130.475,411.028h17.341c.513,0,.929,.416,.929,.929v1.074h-19.198v-1.074c0-.513,.416-.929,.929-.929Z" style="opacity:.2;"></path><path d="M149.673,411.028h17.341c.513,0,.929,.416,.929,.929v1.074h-19.198v-1.074c0-.513,.416-.929,.929-.929Z" style="fill:#2563EB;"></path><path d="M149.673,411.028h17.341c.513,0,.929,.416,.929,.929v1.074h-19.198v-1.074c0-.513,.416-.929,.929-.929Z" style="fill:#fff; opacity:.6;"></path></g><g><path d="M168.977,411.028h17.341c.513,0,.929,.416,.929,.929v1.074h-19.198v-1.074c0-.513,.416-.929,.929-.929Z" style="fill:#2563EB;"></path><path d="M168.977,411.028h17.341c.513,0,.929,.416,.929,.929v1.074h-19.198v-1.074c0-.513,.416-.929,.929-.929Z" style="opacity:.2;"></path><path d="M188.175,411.028h17.341c.513,0,.929,.416,.929,.929v1.074h-19.198v-1.074c0-.513,.416-.929,.929-.929Z" style="fill:#2563EB;"></path><path d="M188.175,411.028h17.341c.513,0,.929,.416,.929,.929v1.074h-19.198v-1.074c0-.513,.416-.929,.929-.929Z" style="fill:#fff; opacity:.6;"></path></g><g><path d="M207.479,411.028h17.341c.513,0,.929,.416,.929,.929v1.074h-19.198v-1.074c0-.513,.416-.929,.929-.929Z" style="fill:#2563EB;"></path><path d="M207.479,411.028h17.341c.513,0,.929,.416,.929,.929v1.074h-19.198v-1.074c0-.513,.416-.929,.929-.929Z" style="opacity:.2;"></path><path d="M226.678,411.028h17.341c.513,0,.929,.416,.929,.929v1.074h-19.198v-1.074c0-.513,.416-.929,.929-.929Z" style="fill:#2563EB;"></path><path d="M226.678,411.028h17.341c.513,0,.929,.416,.929,.929v1.074h-19.198v-1.074c0-.513,.416-.929,.929-.929Z" style="fill:#fff; opacity:.6;"></path></g><g><path d="M245.981,411.028h17.341c.513,0,.929,.416,.929,.929v1.074h-19.198v-1.074c0-.513,.416-.929,.929-.929Z" style="fill:#2563EB;"></path><path d="M245.981,411.028h17.341c.513,0,.929,.416,.929,.929v1.074h-19.198v-1.074c0-.513,.416-.929,.929-.929Z" style="opacity:.2;"></path><path d="M265.18,411.028h17.341c.513,0,.929,.416,.929,.929v1.074h-19.198v-1.074c0-.513,.416-.929,.929-.929Z" style="fill:#2563EB;"></path><path d="M265.18,411.028h17.341c.513,0,.929,.416,.929,.929v1.074h-19.198v-1.074c0-.513,.416-.929,.929-.929Z" style="fill:#fff; opacity:.6;"></path></g><g><path d="M284.484,411.028h17.341c.513,0,.929,.416,.929,.929v1.074h-19.198v-1.074c0-.513,.416-.929,.929-.929Z" style="fill:#2563EB;"></path><path d="M284.484,411.028h17.341c.513,0,.929,.416,.929,.929v1.074h-19.198v-1.074c0-.513,.416-.929,.929-.929Z" style="opacity:.2;"></path><path d="M303.682,411.028h17.341c.513,0,.929,.416,.929,.929v1.074h-19.198v-1.074c0-.513,.416-.929,.929-.929Z" style="fill:#2563EB;"></path><path d="M303.682,411.028h17.341c.513,0,.929,.416,.929,.929v1.074h-19.198v-1.074c0-.513,.416-.929,.929-.929Z" style="fill:#fff; opacity:.6;"></path></g><g><path d="M322.986,411.028h17.341c.513,0,.929,.416,.929,.929v1.074h-19.198v-1.074c0-.513,.416-.929,.929-.929Z" style="fill:#2563EB;"></path><path d="M322.986,411.028h17.341c.513,0,.929,.416,.929,.929v1.074h-19.198v-1.074c0-.513,.416-.929,.929-.929Z" style="opacity:.2;"></path><path d="M342.184,411.028h17.341c.513,0,.929,.416,.929,.929v1.074h-19.198v-1.074c0-.513,.416-.929,.929-.929Z" style="fill:#2563EB;"></path><path d="M342.184,411.028h17.341c.513,0,.929,.416,.929,.929v1.074h-19.198v-1.074c0-.513,.416-.929,.929-.929Z" style="fill:#fff; opacity:.6;"></path></g><g><path d="M361.488,411.028h17.341c.513,0,.929,.416,.929,.929v1.074h-19.198v-1.074c0-.513,.416-.929,.929-.929Z" style="fill:#2563EB;"></path><path d="M361.488,411.028h17.341c.513,0,.929,.416,.929,.929v1.074h-19.198v-1.074c0-.513,.416-.929,.929-.929Z" style="opacity:.2;"></path><path d="M380.686,411.028h17.341c.513,0,.929,.416,.929,.929v1.074h-19.198v-1.074c0-.513,.416-.929,.929-.929Z" style="fill:#2563EB;"></path><path d="M380.686,411.028h17.341c.513,0,.929,.416,.929,.929v1.074h-19.198v-1.074c0-.513,.416-.929,.929-.929Z" style="fill:#fff; opacity:.6;"></path></g><g><path d="M399.99,411.028h17.341c.513,0,.929,.416,.929,.929v1.074h-19.198v-1.074c0-.513,.416-.929,.929-.929Z" style="fill:#2563EB;"></path><path d="M399.99,411.028h17.341c.513,0,.929,.416,.929,.929v1.074h-19.198v-1.074c0-.513,.416-.929,.929-.929Z" style="opacity:.2;"></path><path d="M419.188,411.028h17.341c.513,0,.929,.416,.929,.929v1.074h-19.198v-1.074c0-.513,.416-.929,.929-.929Z" style="fill:#2563EB;"></path><path d="M419.188,411.028h17.341c.513,0,.929,.416,.929,.929v1.074h-19.198v-1.074c0-.513,.416-.929,.929-.929Z" style="fill:#fff; opacity:.6;"></path></g></g></g><g id="freepik--Car_2--inject-415"><g><circle cx="398.518" cy="408.188" r="6.07"></circle><path d="M406.49,393.329c-.063-1.162-.56-2.257-1.392-3.071l-4.889-4.776c-.849-.829-1.983-1.302-3.17-1.322l-13.878-.23v.175l3.306,.055c1.187,.02,2.321,.493,3.17,1.322l4.889,4.776c.832,.813,1.329,1.909,1.392,3.071l.62,11.384c.092,2.522-1.629,4.666-3.968,5.231l9.265,.151c2.975,.048,5.382-2.408,5.274-5.381l-.62-11.384Z" style="fill:#2563EB;"></path><path d="M406.49,393.329c-.063-1.162-.56-2.257-1.392-3.071l-4.889-4.776c-.849-.829-1.983-1.302-3.17-1.322l-13.878-.23v.175l3.306,.055c1.187,.02,2.321,.493,3.17,1.322l4.889,4.776c.832,.813,1.329,1.909,1.392,3.071l.62,11.384c.092,2.522-1.629,4.666-3.968,5.231l9.265,.151c2.975,.048,5.382-2.408,5.274-5.381l-.62-11.384Z" style="opacity:.7;"></path><path d="M397.654,393.13l7.263,.112c.337,.005,.582-.313,.502-.64-.155-.631-.483-1.209-.956-1.671l-4.93-4.817c-.641-.627-1.498-.984-2.395-.999l-4.877-.081c-.415-.007-.625,.497-.328,.787l3.511,3.43c.949,.927,1.55,2.138,1.717,3.445,.032,.247,.245,.43,.494,.434Z" style="fill:#fff;"></path><path d="M406.864,400.196l-.306-5.628h-1.001c-.388,0-.695,.329-.668,.716l.273,3.965c.037,.533,.48,.947,1.015,.947h.688Z" style="fill:#2563EB;"></path><path d="M406.864,400.196l-.306-5.628h-1.001c-.388,0-.695,.329-.668,.716l.273,3.965c.037,.533,.48,.947,1.015,.947h.688Z" style="fill:#fff; opacity:.3;"></path><rect x="397.434" y="406.144" width="10.184" height="2.419" rx=".571" ry=".571" style="fill:#2563EB;"></rect><path d="M353.879,408.188c0,3.353-2.718,6.07-6.07,6.07s-6.07-2.718-6.07-6.07,2.718-6.07,6.07-6.07,6.07,2.718,6.07,6.07Z"></path><path d="M394.623,390.09c.839,.82,1.34,1.925,1.404,3.097l.625,11.48c.109,2.999-2.319,5.476-5.319,5.427l-63.918-1.039c-1.523-.025-2.707-1.331-2.583-2.849l.327-4c.145-1.776,.984-3.423,2.336-4.585l.53-.455c.779-.669,1.699-1.153,2.692-1.414l10.061-2.648,10.31-6.186c3.78-2.268,8.119-3.431,12.526-3.358l22.884,.379c1.197,.02,2.34,.497,3.197,1.333l4.93,4.817Z" style="fill:#2563EB;"></path><path d="M394.623,390.09c.839,.82,1.34,1.925,1.404,3.097l.625,11.48c.109,2.999-2.319,5.476-5.319,5.427l-63.918-1.039c-1.523-.025-2.707-1.331-2.583-2.849l.327-4c.145-1.776,.984-3.423,2.336-4.585l.53-.455c.779-.669,1.699-1.153,2.692-1.414l10.061-2.648,10.31-6.186c3.78-2.268,8.119-3.431,12.526-3.358l22.884,.379c1.197,.02,2.34,.497,3.197,1.333l4.93,4.817Z" style="opacity:.3;"></path><path d="M344.247,408.188c0-3.92-3.178-7.099-7.099-7.099s-7.099,3.178-7.099,7.099c0,.31,.026,.612,.065,.911l14.032,.228c.06-.372,.1-.75,.1-1.139Z"></path><path d="M387.857,401.09c-3.92,0-7.098,3.178-7.098,7.099,0,.601,.083,1.181,.223,1.738l10.351,.168c1.387,.023,2.647-.499,3.595-1.358,.014-.182,.028-.363,.028-.548,0-3.92-3.178-7.099-7.099-7.099Z"></path><g style="opacity:.9;"><path d="M391.223,392.025c-.131-.327-.288-.633-.462-.815h0l-4.633-4.817c-.538-.56-1.248-.875-2-.888l-15.524-.274c-.378-.007-.7,.275-.743,.651l-.776,6.724c-.05,.436,.291,.819,.73,.819h22.456c.723,0,1.222-.73,.954-1.401Z" style="fill:#fff;"></path><path d="M366.271,385.997c.05-.431-.283-.811-.717-.819l-2.934-.052c-.115-.002-.23-.003-.344-.003-3.752,0-7.425,1.082-10.647,3.138l-6.148,3.925c-.567,.362-.31,1.239,.362,1.239h18.915c.373,0,.687-.28,.73-.651l.782-6.778Z" style="fill:#fff;"></path></g><path d="M324.457,404.492l-.101,1.441c-.035,.498,.359,.921,.858,.921h1.686c.44,0,.81-.332,.856-.77l.152-1.441c.053-.508-.345-.95-.856-.95h-1.737c-.452,0-.827,.349-.858,.8Z" style="fill:#2563EB;"></path><path d="M326.006,401.503l.446-1.316c.24-.708,.859-1.22,1.599-1.323l1.676-.233c.499-.069,.89,.422,.711,.893l-.841,2.208c-.09,.236-.306,.4-.558,.424l-2.343,.219c-.478,.045-.844-.418-.69-.873Z" style="fill:#fff;"></path><circle cx="337.148" cy="408.188" r="6.07" style="fill:#263238;"></circle><path d="M340.248,408.188c0,1.712-1.388,3.1-3.1,3.1s-3.1-1.388-3.1-3.1,1.388-3.1,3.1-3.1,3.1,1.388,3.1,3.1Z" style="fill:#fff; opacity:.7;"></path><path d="M393.927,408.188c0,3.353-2.718,6.07-6.07,6.07s-6.07-2.718-6.07-6.07,2.718-6.07,6.07-6.07,6.07,2.718,6.07,6.07Z" style="fill:#263238;"></path><path d="M390.958,408.188c0,1.712-1.388,3.1-3.1,3.1s-3.1-1.388-3.1-3.1,1.388-3.1,3.1-3.1,3.1,1.388,3.1,3.1Z" style="fill:#fff; opacity:.7;"></path><path d="M397.792,400.112h-2.515c-.539,0-.986-.417-1.023-.955l-.276-3.998c-.027-.39,.283-.722,.674-.722h2.515c.539,0,.986,.417,1.023,.955l.276,3.998c.027,.39-.283,.722-.674,.722Z" style="fill:#2563EB;"></path><path d="M396.288,400.112h1.503c.391,0,.701-.332,.674-.722l-.276-3.998c-.037-.538-.484-.955-1.023-.955h-1.187l.309,5.675Z" style="fill:#fff; opacity:.3;"></path></g></g><g id="freepik--Car_1--inject-415"><g><path d="M210.765,408.188c0,3.353-2.718,6.07-6.07,6.07s-6.07-2.718-6.07-6.07,2.718-6.07,6.07-6.07,6.07,2.718,6.07,6.07Z"></path><path d="M212.667,393.329c-.063-1.162-.56-2.257-1.392-3.071l-4.889-4.776c-.849-.829-1.983-1.302-3.17-1.322l-13.878-.23v.175l3.306,.055c1.187,.02,2.321,.493,3.17,1.322l4.889,4.776c.832,.813,1.329,1.909,1.392,3.071l.62,11.384c.092,2.522-1.628,4.666-3.967,5.231l9.265,.151c2.975,.048,5.382-2.408,5.274-5.381l-.62-11.384Z"></path><path d="M203.831,393.13l7.263,.112c.337,.005,.582-.313,.501-.64-.155-.631-.483-1.209-.956-1.671l-4.93-4.817c-.641-.627-1.498-.984-2.395-.999l-4.877-.081c-.415-.007-.625,.497-.328,.787l3.511,3.43c.95,.927,1.55,2.138,1.717,3.445,.031,.247,.245,.43,.494,.434Z" style="fill:#fff;"></path><path d="M213.041,400.196l-.306-5.628h-1.001c-.388,0-.695,.329-.668,.716l.274,3.965c.037,.533,.48,.947,1.015,.947h.688Z" style="fill:#2563EB;"></path><path d="M213.041,400.196l-.306-5.628h-1.001c-.388,0-.695,.329-.668,.716l.274,3.965c.037,.533,.48,.947,1.015,.947h.688Z" style="fill:#fff; opacity:.3;"></path><rect x="203.611" y="406.144" width="10.184" height="2.419" rx=".571" ry=".571" style="fill:#2563EB;"></rect><circle cx="153.986" cy="408.188" r="6.07"></circle><path d="M200.8,390.09c.839,.82,1.34,1.925,1.404,3.097l.625,11.48c.109,2.999-2.319,5.476-5.319,5.427l-63.918-1.039c-1.522-.025-2.707-1.331-2.583-2.849l.327-4c.145-1.776,.984-3.423,2.336-4.585l.53-.455c.779-.669,1.699-1.153,2.692-1.414l10.061-2.648,10.31-6.186c3.78-2.268,8.119-3.431,12.526-3.358l22.883,.379c1.197,.02,2.341,.497,3.197,1.333l4.93,4.817Z" style="fill:#263238;"></path><path d="M150.423,408.188c0-3.92-3.178-7.099-7.099-7.099s-7.099,3.178-7.099,7.099c0,.31,.026,.612,.065,.911l14.032,.228c.06-.372,.1-.75,.1-1.139Z"></path><path d="M194.034,401.09c-3.92,0-7.099,3.178-7.099,7.099,0,.601,.083,1.181,.223,1.738l10.351,.168c1.387,.023,2.647-.499,3.595-1.358,.014-.182,.028-.363,.028-.548,0-3.92-3.178-7.099-7.099-7.099Z"></path><g style="opacity:.9;"><path d="M197.4,392.025c-.131-.327-.288-.633-.462-.815h0l-4.633-4.817c-.538-.56-1.248-.875-2-.888l-15.524-.274c-.378-.007-.7,.275-.743,.651l-.776,6.724c-.05,.436,.291,.819,.73,.819h22.456c.723,0,1.222-.73,.953-1.401Z" style="fill:#fff;"></path><path d="M172.447,385.997c.05-.431-.283-.811-.717-.819l-2.934-.052c-.115-.002-.23-.003-.344-.003-3.752,0-7.426,1.082-10.647,3.138l-6.148,3.925c-.567,.362-.311,1.239,.362,1.239h18.915c.373,0,.687-.28,.73-.651l.782-6.778Z" style="fill:#fff;"></path></g><path d="M130.634,404.492l-.101,1.441c-.035,.498,.359,.921,.858,.921h1.686c.44,0,.81-.332,.856-.77l.152-1.441c.053-.508-.345-.95-.856-.95h-1.737c-.452,0-.827,.349-.858,.8Z" style="fill:#2563EB;"></path><path d="M132.182,401.503l.446-1.316c.24-.708,.859-1.22,1.599-1.323l1.676-.233c.499-.069,.89,.422,.711,.893l-.841,2.208c-.09,.236-.306,.4-.558,.424l-2.343,.219c-.478,.045-.844-.418-.69-.873Z" style="fill:#fff;"></path><circle cx="143.325" cy="408.188" r="6.07" style="fill:#2563EB;"></circle><path d="M146.425,408.188c0,1.712-1.388,3.1-3.1,3.1s-3.1-1.388-3.1-3.1,1.388-3.1,3.1-3.1,3.1,1.388,3.1,3.1Z" style="fill:#fff; opacity:.7;"></path><circle cx="194.034" cy="408.188" r="6.07" style="fill:#2563EB;"></circle><path d="M197.134,408.188c0,1.712-1.388,3.1-3.1,3.1s-3.1-1.388-3.1-3.1,1.388-3.1,3.1-3.1,3.1,1.388,3.1,3.1Z" style="fill:#fff; opacity:.7;"></path><path d="M203.968,400.112h-2.515c-.539,0-.986-.417-1.023-.955l-.276-3.998c-.027-.39,.283-.722,.674-.722h2.515c.539,0,.986,.417,1.023,.955l.276,3.998c.027,.39-.282,.722-.674,.722Z" style="fill:#2563EB;"></path><path d="M202.465,400.112h1.503c.391,0,.701-.332,.674-.722l-.276-3.998c-.037-.538-.484-.955-1.023-.955h-1.187l.309,5.675Z" style="fill:#fff; opacity:.3;"></path></g></g></svg>
