<svg xmlns="http://www.w3.org/2000/svg" viewBox="0 0 500 500"><g id="freepik--Lines--inject-68"><g><path d="M107.36,328.65c-.13,0-.26-.05-.36-.15-.19-.2-.19-.51,0-.71,5.72-5.57,9.43-9.13,13.14-12.7,3.7-3.56,7.41-7.11,13.12-12.68,.2-.19,.51-.19,.71,0,.19,.2,.19,.51,0,.71-5.71,5.56-9.42,9.12-13.12,12.68-3.71,3.56-7.42,7.12-13.13,12.69-.1,.09-.22,.14-.35,.14Z" style="fill:#263238;"></path><path d="M99.67,335.5c-.13,0-.26-.05-.36-.15-.19-.2-.19-.51,0-.71l4.65-4.53c.2-.19,.51-.19,.71,0,.19,.2,.19,.51,0,.71l-4.65,4.53c-.1,.09-.22,.14-.35,.14Z" style="fill:#263238;"></path><path d="M96.66,372.61c-.12,0-.25-.05-.35-.14-.2-.19-.21-.51-.02-.71l50.55-52.84c.19-.2,.51-.21,.71-.02,.2,.19,.21,.51,.02,.71l-50.55,52.84c-.1,.1-.23,.15-.36,.15Z" style="fill:#263238;"></path><path d="M136.36,359.89c-.12,0-.25-.04-.34-.14-.2-.19-.21-.51-.02-.71,4.29-4.56,7.25-7.8,10.11-10.93,2.86-3.13,5.82-6.37,10.12-10.94,.19-.2,.51-.21,.71-.02,.2,.19,.21,.51,.02,.71-4.29,4.56-7.25,7.8-10.11,10.93-2.86,3.13-5.82,6.37-10.12,10.94-.1,.1-.23,.16-.36,.16Z" style="fill:#263238;"></path><path d="M159.36,334.95c-.12,0-.24-.04-.33-.13-.21-.18-.23-.5-.04-.71l3.98-4.48c.18-.21,.5-.22,.71-.04,.21,.18,.23,.5,.04,.71l-3.98,4.48c-.1,.11-.24,.17-.37,.17Z" style="fill:#263238;"></path></g></g><g id="freepik--Clock--inject-68"><g><g><path d="M161.28,240c-3.79-8.63-8.17-17.26-15.07-23.67-10.32-9.57-24.78-12.89-38.45-16.26-29.71-7.33-58.94-16.58-87.46-27.68-5.53-2.15-10.89,3.45-8.53,8.9,2.62,6.06,5.63,11.91,9.5,17.25,6.93,9.56,17.09,17.41,28.81,18.87-4.28,.43-8.81,.95-11.86,4.4-1.55,1.75-2.2,4.19-1.42,6.39,1.3,3.65,5.49,4.41,9.09,4.81,7.11,.78,14.23,1.56,21.34,2.34-5.37,1.41-8.77,7.54-7.74,12.99,1.03,5.45,5.93,9.75,11.38,10.75,4.81,.88,9.86-.59,13.84-3.46-2.77,2.93-2.91,8.15-.42,11.5,2.89,3.89,8.27,5.33,13.06,4.57,4.79-.76,9.09-3.37,12.96-6.29,2.28,4.89,7.35,8.36,12.74,8.71,5.39,.35,10.87-2.44,13.76-6.99,2.45,8.28,13.6,12.54,20.95,8,4.76,7.52,9.52,15.03,14.27,22.55l3.88-15.67c-3.76-14.36-8.65-28.41-14.62-42Z" style="fill:#263238;"></path><g style="opacity:.8;"><path d="M161.28,240c-3.79-8.63-8.17-17.26-15.07-23.67-10.32-9.57-24.78-12.89-38.45-16.26-29.71-7.33-58.94-16.58-87.46-27.68-5.53-2.15-10.89,3.45-8.53,8.9,2.62,6.06,5.63,11.91,9.5,17.25,6.93,9.56,17.09,17.41,28.81,18.87-4.28,.43-8.81,.95-11.86,4.4-1.55,1.75-2.2,4.19-1.42,6.39,1.3,3.65,5.49,4.41,9.09,4.81,7.11,.78,14.23,1.56,21.34,2.34-5.37,1.41-8.77,7.54-7.74,12.99,1.03,5.45,5.93,9.75,11.38,10.75,4.81,.88,9.86-.59,13.84-3.46-2.77,2.93-2.91,8.15-.42,11.5,2.89,3.89,8.27,5.33,13.06,4.57,4.79-.76,9.09-3.37,12.96-6.29,2.28,4.89,7.35,8.36,12.74,8.71,5.39,.35,10.87-2.44,13.76-6.99,2.45,8.28,13.6,12.54,20.95,8,4.76,7.52,9.52,15.03,14.27,22.55l3.88-15.67c-3.76-14.36-8.65-28.41-14.62-42Z" style="fill:#fff;"></path></g></g><g><path d="M333.73,233.97c4.56-8.25,9.7-16.45,17.16-22.2,11.15-8.6,25.85-10.59,39.77-12.7,30.25-4.6,60.2-11.16,89.61-19.63,5.7-1.64,10.53,4.42,7.69,9.63-3.16,5.8-6.69,11.35-11.02,16.32-7.77,8.89-18.6,15.78-30.41,16.17,4.22,.82,8.69,1.75,11.41,5.46,1.38,1.88,1.81,4.38,.84,6.5-1.62,3.52-5.86,3.9-9.48,3.96-7.16,.13-14.31,.26-21.47,.39,5.22,1.89,8.05,8.31,6.53,13.64-1.52,5.33-6.79,9.17-12.31,9.67-4.87,.44-9.76-1.48-13.46-4.71,2.49,3.17,2.16,8.38-.63,11.49-3.23,3.62-8.72,4.56-13.43,3.37-4.7-1.19-8.74-4.18-12.33-7.44-2.71,4.67-8.08,7.66-13.48,7.52s-10.6-3.41-13.07-8.21c-3.2,8.03-14.68,11.25-21.59,6.07-5.42,7.05-10.84,14.11-16.26,21.16l-2.44-15.96c5.05-13.95,11.2-27.51,18.38-40.5Z" style="fill:#263238;"></path><g style="opacity:.8;"><path d="M333.73,233.97c4.56-8.25,9.7-16.45,17.16-22.2,11.15-8.6,25.85-10.59,39.77-12.7,30.25-4.6,60.2-11.16,89.61-19.63,5.7-1.64,10.53,4.42,7.69,9.63-3.16,5.8-6.69,11.35-11.02,16.32-7.77,8.89-18.6,15.78-30.41,16.17,4.22,.82,8.69,1.75,11.41,5.46,1.38,1.88,1.81,4.38,.84,6.5-1.62,3.52-5.86,3.9-9.48,3.96-7.16,.13-14.31,.26-21.47,.39,5.22,1.89,8.05,8.31,6.53,13.64-1.52,5.33-6.79,9.17-12.31,9.67-4.87,.44-9.76-1.48-13.46-4.71,2.49,3.17,2.16,8.38-.63,11.49-3.23,3.62-8.72,4.56-13.43,3.37-4.7-1.19-8.74-4.18-12.33-7.44-2.71,4.67-8.08,7.66-13.48,7.52s-10.6-3.41-13.07-8.21c-3.2,8.03-14.68,11.25-21.59,6.07-5.42,7.05-10.84,14.11-16.26,21.16l-2.44-15.96c5.05-13.95,11.2-27.51,18.38-40.5Z" style="fill:#fff;"></path></g></g><circle cx="241.36" cy="272.93" r="82.62" transform="translate(-67.54 466.13) rotate(-80.54)" style="fill:#2563EB;"></circle><circle cx="241.36" cy="272.93" r="82.62" transform="translate(-67.54 466.13) rotate(-80.54)" style="opacity:.3;"></circle><circle cx="245.61" cy="254.82" r="82.62" transform="translate(-46.12 455.2) rotate(-80.54)" style="fill:#2563EB;"></circle><circle cx="245.61" cy="254.82" r="75.88" transform="translate(-108.25 248.31) rotate(-45)" style="fill:#2563EB;"></circle><circle cx="245.61" cy="254.82" r="75.88" transform="translate(-108.25 248.31) rotate(-45)" style="fill:#fff; opacity:.7;"></circle><path d="M273.28,184.14l-99.88,94.05s6.88,17.4,13.14,24.26l107.34-106.18s-9.17-8.19-20.6-12.12Z" style="fill:#fff; opacity:.4;"></path><path d="M303.66,206.49l-111.79,101.9s1.75,2.79,9.81,8l110.36-98.46s-1.28-3.98-8.38-11.45Z" style="fill:#fff; opacity:.4;"></path><g><g><path d="M243.73,187.18v9.06h-1.68v-7.65h-1.91v-1.41h3.6Z" style="fill:#263238;"></path><path d="M252.09,194.82v1.42h-6.68v-1.13l3.6-3.42c.41-.39,.68-.73,.82-1.02,.14-.29,.21-.58,.21-.86,0-.42-.14-.75-.43-.97-.29-.22-.7-.34-1.26-.34-.92,0-1.63,.31-2.12,.94l-1.18-.91c.35-.47,.83-.84,1.43-1.11,.6-.26,1.27-.39,2.01-.39,.98,0,1.77,.23,2.36,.7,.59,.47,.88,1.1,.88,1.9,0,.49-.1,.95-.31,1.38-.21,.43-.6,.92-1.19,1.47l-2.42,2.3h4.27Z" style="fill:#263238;"></path></g><path d="M246.32,316.52c.47,.23,.84,.55,1.11,.98,.27,.42,.4,.91,.4,1.46,0,.59-.15,1.1-.44,1.55-.29,.44-.69,.79-1.19,1.03-.5,.24-1.06,.36-1.68,.36-1.24,0-2.21-.39-2.89-1.17-.69-.78-1.03-1.89-1.03-3.34,0-1.02,.19-1.89,.56-2.61,.37-.72,.89-1.27,1.56-1.64,.67-.38,1.44-.56,2.32-.56,.47,0,.9,.05,1.31,.15,.41,.1,.77,.24,1.07,.43l-.62,1.27c-.45-.29-1.02-.44-1.72-.44-.87,0-1.55,.27-2.04,.8-.49,.54-.74,1.31-.74,2.32h0c.27-.3,.61-.53,1.02-.69,.41-.16,.88-.24,1.4-.24,.6,0,1.13,.11,1.61,.34Zm-.61,3.64c.33-.28,.49-.65,.49-1.12s-.16-.85-.49-1.13c-.33-.28-.77-.41-1.32-.41s-.99,.15-1.33,.44c-.34,.29-.51,.67-.51,1.11s.17,.8,.5,1.09c.33,.29,.79,.43,1.38,.43,.53,0,.95-.14,1.28-.42Z" style="fill:#263238;"></path><path d="M277.61,198.15v9.06h-1.68v-7.65h-1.92v-1.41h3.6Z" style="fill:#263238;"></path><path d="M278.34,307.61c.61,.5,.92,1.17,.92,2.03,0,.54-.13,1.04-.4,1.48-.27,.44-.67,.79-1.2,1.05-.54,.26-1.2,.39-1.98,.39-.65,0-1.27-.09-1.88-.28-.6-.19-1.11-.44-1.53-.77l.71-1.31c.34,.28,.74,.49,1.21,.65,.47,.16,.96,.24,1.46,.24,.6,0,1.06-.12,1.4-.37,.34-.25,.51-.58,.51-1.02,0-.47-.18-.82-.55-1.05-.37-.24-.99-.36-1.88-.36h-2.19l.47-4.93h5.32v1.41h-3.9l-.19,2.1h.87c1.28,0,2.22,.25,2.83,.74Z" style="fill:#263238;"></path><g><path d="M213.25,198.15v9.06h-1.68v-7.65h-1.91v-1.41h3.6Z" style="fill:#263238;"></path><path d="M218.18,198.15v9.06h-1.68v-7.65h-1.92v-1.41h3.6Z" style="fill:#263238;"></path></g><g><path d="M213.25,303.36v9.06h-1.68v-7.65h-1.91v-1.41h3.6Z" style="fill:#263238;"></path><path d="M218.18,303.36v9.06h-1.68v-7.65h-1.92v-1.41h3.6Z" style="fill:#263238;"></path></g><path d="M300.45,225.5v1.42h-6.68v-1.13l3.6-3.42c.41-.39,.68-.73,.82-1.02,.14-.29,.21-.58,.21-.86,0-.42-.14-.75-.43-.97-.29-.22-.7-.34-1.26-.34-.92,0-1.63,.31-2.12,.94l-1.18-.91c.35-.47,.83-.84,1.43-1.11,.6-.26,1.27-.39,2.01-.39,.98,0,1.77,.23,2.36,.7s.88,1.1,.88,1.9c0,.49-.1,.95-.31,1.38-.21,.43-.6,.92-1.19,1.47l-2.42,2.3h4.27Z" style="fill:#263238;"></path><path d="M302.24,287.45h-1.6v2.06h-1.63v-2.06h-4.97v-1.17l4.46-5.84h1.8l-4.21,5.58h2.96v-1.82h1.58v1.82h1.6v1.42Z" style="fill:#263238;"></path><g><path d="M192.87,217.86v9.06h-1.68v-7.65h-1.92v-1.41h3.6Z" style="fill:#263238;"></path><path d="M196.51,226.5c-.57-.37-1.02-.9-1.35-1.6-.33-.7-.49-1.54-.49-2.5s.16-1.8,.49-2.5c.33-.7,.78-1.24,1.35-1.61,.57-.37,1.22-.55,1.94-.55s1.37,.18,1.95,.55c.57,.37,1.02,.9,1.35,1.61,.33,.7,.49,1.54,.49,2.5s-.16,1.8-.49,2.5c-.33,.7-.78,1.24-1.35,1.6-.57,.37-1.22,.55-1.95,.55s-1.37-.18-1.94-.55Zm3.47-1.71c.37-.53,.56-1.33,.56-2.39s-.19-1.86-.56-2.39c-.37-.54-.89-.8-1.53-.8s-1.15,.27-1.52,.8c-.38,.54-.56,1.33-.56,2.39s.19,1.86,.56,2.39c.37,.54,.88,.8,1.52,.8s1.16-.27,1.53-.8Z" style="fill:#263238;"></path></g><path d="M196.71,285.48c.25,.37,.38,.8,.38,1.29,0,.55-.15,1.04-.46,1.45-.31,.41-.74,.73-1.3,.95-.56,.22-1.21,.33-1.95,.33s-1.39-.11-1.95-.33c-.56-.22-.99-.54-1.29-.95-.3-.41-.45-.9-.45-1.45,0-.49,.12-.92,.38-1.29,.25-.37,.61-.66,1.07-.87-.36-.2-.64-.46-.83-.78-.19-.32-.29-.7-.29-1.12,0-.51,.14-.95,.42-1.33,.28-.38,.68-.67,1.18-.88,.51-.21,1.1-.31,1.76-.31s1.26,.1,1.77,.31c.51,.21,.91,.5,1.19,.88,.28,.38,.43,.82,.43,1.33,0,.42-.1,.79-.3,1.11-.2,.32-.48,.58-.85,.79,.47,.22,.84,.51,1.09,.87Zm-1.86,2.31c.36-.26,.54-.62,.54-1.07s-.18-.8-.54-1.06-.85-.39-1.48-.39-1.11,.13-1.46,.39c-.35,.26-.53,.61-.53,1.06s.18,.82,.53,1.07c.35,.26,.84,.39,1.46,.39s1.11-.13,1.48-.39Zm-2.72-5.95c-.31,.22-.46,.54-.46,.95s.15,.7,.46,.92c.31,.23,.72,.34,1.25,.34s.96-.11,1.27-.34c.31-.23,.47-.54,.47-.92s-.16-.72-.47-.95c-.32-.22-.74-.34-1.26-.34s-.94,.11-1.25,.34Z" style="fill:#263238;"></path><path d="M308.36,253.95c.44,.47,.66,1.05,.66,1.75,0,.53-.13,1-.4,1.44-.27,.43-.67,.77-1.21,1.03-.54,.25-1.2,.38-1.97,.38-.65,0-1.27-.09-1.87-.28-.6-.19-1.11-.44-1.53-.77l.72-1.31c.33,.28,.73,.49,1.2,.65,.47,.16,.96,.24,1.46,.24,.6,0,1.06-.12,1.4-.37,.34-.25,.51-.58,.51-1s-.16-.75-.49-.99c-.32-.24-.82-.36-1.48-.36h-.83v-1.15l2.06-2.45h-4.12v-1.41h6.17v1.12l-2.2,2.61c.84,.1,1.48,.39,1.92,.85Z" style="fill:#263238;"></path><path d="M186.69,250.39c.69,.78,1.03,1.89,1.03,3.34,0,1.02-.19,1.89-.56,2.61s-.89,1.27-1.56,1.64c-.67,.38-1.44,.56-2.32,.56-.47,0-.9-.05-1.31-.15-.41-.1-.77-.24-1.07-.43l.62-1.27c.45,.29,1.02,.44,1.72,.44,.87,0,1.55-.27,2.04-.8,.49-.53,.74-1.31,.74-2.32h0c-.27,.3-.61,.53-1.02,.69-.41,.16-.88,.24-1.4,.24-.6,0-1.13-.11-1.6-.34-.47-.23-.85-.55-1.11-.98-.27-.42-.4-.91-.4-1.46,0-.59,.15-1.1,.44-1.55,.29-.44,.69-.79,1.19-1.03,.5-.24,1.06-.36,1.68-.36,1.24,0,2.21,.39,2.89,1.16Zm-1.44,2.79c.34-.29,.51-.66,.51-1.11s-.17-.8-.5-1.09c-.33-.29-.79-.43-1.38-.43-.53,0-.95,.14-1.28,.42-.33,.28-.49,.65-.49,1.12s.16,.85,.49,1.13c.33,.28,.77,.41,1.32,.41s.99-.15,1.33-.44Z" style="fill:#263238;"></path></g><g><polygon points="244 254.99 245.67 205.76 248.01 205.76 250.78 254.99 244 254.99" style="fill:#263238;"></polygon><polygon points="244.43 258.29 221.44 235.38 223 233.64 248.97 253.25 244.43 258.29" style="fill:#263238;"></polygon><polygon points="231.98 265.52 285.68 235.01 233.11 267.16 231.98 265.52" style="fill:#2563EB;"></polygon><path d="M254.51,254.99c0,3.93-3.19,7.12-7.12,7.12s-7.12-3.19-7.12-7.12,3.19-7.12,7.12-7.12,7.12,3.19,7.12,7.12Z" style="fill:#2563EB;"></path><path d="M254.51,254.99c0,3.93-3.19,7.12-7.12,7.12s-7.12-3.19-7.12-7.12,3.19-7.12,7.12-7.12,7.12,3.19,7.12,7.12Z" style="opacity:.3;"></path></g><path d="M189.17,326.97s-13.33,25.58-8.83,25.95c4.5,.37,20.11-17.77,20.11-17.77,0,0-1.67-8.98-11.27-8.18Z" style="fill:#2563EB;"></path><path d="M301.54,324.49s13.33,25.58,8.83,25.95c-4.5,.37-20.11-17.77-20.11-17.77,0,0,1.67-8.98,11.27-8.18Z" style="fill:#2563EB;"></path><g><path d="M156.56,211.79c.49-.59,56.76-51.53,56.76-51.53,0,0-21.55-18.66-46.8,6.44-25.25,25.09-9.96,45.09-9.96,45.09Z" style="fill:#2563EB;"></path><g><path d="M213.32,160.26c2.27,2.47-9.21,15.55-24.78,29.81-15.56,14.26-30.01,23.82-32.28,21.34-2.27-2.47,8.51-16.04,24.08-30.3,15.56-14.26,30.71-23.33,32.98-20.86Z" style="fill:#2563EB;"></path><path d="M213.32,160.26c2.27,2.47-9.21,15.55-24.78,29.81-15.56,14.26-30.01,23.82-32.28,21.34-2.27-2.47,8.51-16.04,24.08-30.3,15.56-14.26,30.71-23.33,32.98-20.86Z" style="opacity:.3;"></path></g><rect x="176.96" y="168.16" width="11.37" height="29.06" transform="translate(-75.44 171.39) rotate(-42.5)" style="fill:#2563EB;"></rect><circle cx="168.9" cy="167.7" r="8.12" style="fill:#2563EB;"></circle><path d="M166.48,167.45l-4.59,4.32c-.65,.8-11.94,16.82-2.53,31.91,3.57-4.85,7.79-9.61,12.42-14.31-4.88-3.94-10.48-11.21-5.3-21.92Z" style="fill:#fff; opacity:.4;"></path><polygon points="176.65 184.58 185.08 176.94 186.96 179 178.97 187.12 176.65 184.58" style="opacity:.2;"></polygon><polygon points="161.89 171.77 173.36 160.92 172.44 160.4 161.37 170.72 161.89 171.77" style="opacity:.3;"></polygon></g><g><path d="M274.98,159.6c.65,.4,59.15,48.77,59.15,48.77,0,0,15.37-24.01-13.09-45.39-28.46-21.38-46.06-3.38-46.06-3.38Z" style="fill:#2563EB;"></path><g><path d="M334.13,208.37c-2.12,2.6-16.71-6.88-33.06-20.24-16.35-13.35-27.88-26.28-25.76-28.88,2.12-2.6,17.09,6.12,33.44,19.47,16.35,13.35,27.5,27.04,25.38,29.64Z" style="fill:#2563EB;"></path><path d="M334.13,208.37c-2.12,2.6-16.71-6.88-33.06-20.24-16.35-13.35-27.88-26.28-25.76-28.88,2.12-2.6,17.09,6.12,33.44,19.47,16.35,13.35,27.5,27.04,25.38,29.64Z" style="opacity:.3;"></path></g><rect x="301.84" y="166.7" width="11.37" height="29.06" transform="translate(183.98 -153.66) rotate(39.24)" style="fill:#2563EB;"></rect><path d="M321.56,173.51c-4.44,.64-8.55-2.43-9.2-6.87-.64-4.44,2.43-8.55,6.87-9.2,4.44-.64,8.55,2.43,9.2,6.87,.64,4.44-2.43,8.55-6.87,9.2Z" style="fill:#2563EB;"></path><path d="M320.29,163.05l-4.94-3.92c-.89-.53-18.36-9.4-31.94,2.08,5.31,2.83,10.63,6.33,15.95,10.24,3.19-5.4,9.59-11.98,20.93-8.4Z" style="fill:#fff; opacity:.4;"></path><polygon points="304.8 175.57 313.57 182.81 311.81 184.97 302.63 178.23 304.8 175.57" style="opacity:.2;"></polygon><polygon points="315.36 159.12 327.75 168.91 328.13 167.93 316.32 158.46 315.36 159.12" style="opacity:.3;"></polygon></g><path d="M187.35,196.24s6.24-5.54,8.65-7.39l-.79-.86-8.57,7.49,.7,.77Z" style="opacity:.3;"></path><path d="M294.58,188.16s6.45,5.29,8.66,7.39l.72-.91-8.74-7.29-.65,.81Z" style="opacity:.3;"></path><g><path d="M63.63,212.96s48.98,6.64,59.28,13.86c10.3,7.23,31.28,35.56,31.28,35.56,0,0-25.74-27.17-36.04-33.51-10.3-6.34-54.52-15.91-54.52-15.91Z" style="opacity:.3;"></path><path d="M83.66,226.47s-4.5,14.09,6.65,13.7c11.16-.39,15.66-5.28,15.66-5.28,0,0-3.13,12.92,5.28,12.72,8.42-.2,14.29-5.48,14.29-5.48,0,0-12.14,10.35-18.01,7.92-5.87-2.44-3.38-10.85-3.38-10.85,0,0-13.75,6.68-19.43,2s-4.57-6.82-1.07-14.72Z" style="opacity:.3;"></path></g><g><path d="M427.6,210.29s-48.98,6.64-59.28,13.86c-10.3,7.23-31.28,35.56-31.28,35.56,0,0,25.74-27.17,36.04-33.51,10.3-6.34,54.52-15.91,54.52-15.91Z" style="opacity:.3;"></path><path d="M407.57,223.81s4.5,14.09-6.65,13.7c-11.16-.39-15.66-5.28-15.66-5.28,0,0,3.13,12.92-5.28,12.72-8.42-.2-14.29-5.48-14.29-5.48,0,0,12.14,10.35,18.01,7.92,5.87-2.44,3.38-10.85,3.38-10.85,0,0,13.75,6.68,19.43,2,5.68-4.68,4.57-6.82,1.07-14.72Z" style="opacity:.3;"></path></g><g><path d="M216.78,173.79c-.15,0-.3-.09-.35-.25-.07-.19,.03-.41,.22-.48,15.57-5.73,33.03-6.77,49.16-2.91,.2,.05,.33,.25,.28,.45-.05,.2-.25,.32-.45,.28-16-3.83-33.3-2.8-48.73,2.88-.04,.02-.09,.02-.13,.02Z" style="fill:#2563EB;"></path><path d="M270.38,172.17s-.07,0-.1-.01l-2.47-.7c-.2-.06-.32-.26-.26-.46,.06-.2,.26-.32,.46-.26l2.47,.7c.2,.06,.32,.26,.26,.46-.05,.17-.2,.27-.36,.27Z" style="fill:#2563EB;"></path></g></g></g></svg>
